STARTFONT 2.1
FONT -FontForge-Good Times Rg-Book-R-Normal--24-240-75-75-P-177-ISO10646-1
SIZE 24 75 75
FONTBOUNDINGBOX 48 29 -7 -5
COMMENT "Generated by fontforge, http://fontforge.sourceforge.net"
COMMENT "(c) 1998-2012 Typodermic Fonts Inc. See attached license agreement. If agreement is missing visit typodermicfonts.com for more info. Languages by Chikako Larabie"
STARTPROPERTIES 39
FOUNDRY "FontForge"
FAMILY_NAME "Good Times Rg"
WEIGHT_NAME "Book"
SLANT "R"
SETWIDTH_NAME "Normal"
ADD_STYLE_NAME ""
PIXEL_SIZE 24
POINT_SIZE 240
RESOLUTION_X 75
RESOLUTION_Y 75
SPACING "P"
AVERAGE_WIDTH 177
CHARSET_REGISTRY "ISO10646"
CHARSET_ENCODING "1"
FONTNAME_REGISTRY ""
CHARSET_COLLECTIONS "ISO8859-2 ISO8859-9 ISO8859-4 ISO10646-1"
FONT_NAME "GoodTimesRg-Regular"
FACE_NAME "GoodTimesRg-Regular"
COPYRIGHT "(c) 1998-2012 Typodermic Fonts Inc. See attached license agreement. If agreement is missing visit typodermicfonts.com for more info. Languages by Chikako Larabie"
FONT_VERSION "4.001"
FONT_ASCENT 19
FONT_DESCENT 5
UNDERLINE_POSITION -3
UNDERLINE_THICKNESS 1
X_HEIGHT 17
CAP_HEIGHT 17
RAW_ASCENT 799
RAW_DESCENT 201
NORM_SPACE 7
RELATIVE_WEIGHT 40
RELATIVE_SETWIDTH 50
SUPERSCRIPT_X 0
SUPERSCRIPT_Y 7
SUPERSCRIPT_SIZE 7
SUBSCRIPT_X 0
SUBSCRIPT_Y 0
SUBSCRIPT_SIZE 7
AVG_LOWERCASE_WIDTH 203
AVG_UPPERCASE_WIDTH 202
ENDPROPERTIES
CHARS 372
STARTCHAR space
ENCODING 32
SWIDTH 294 0
DWIDTH 7 0
BBX 1 1 0 0
BITMAP
00
ENDCHAR
STARTCHAR exclam
ENCODING 33
SWIDTH 298 0
DWIDTH 7 0
BBX 3 18 2 0
BITMAP
E0
E0
E0
E0
E0
E0
E0
E0
E0
E0
E0
E0
00
00
00
E0
E0
E0
ENDCHAR
STARTCHAR quotedbl
ENCODING 34
SWIDTH 452 0
DWIDTH 11 0
BBX 7 6 2 12
BITMAP
EE
EE
EE
CE
C6
C6
ENDCHAR
STARTCHAR numbersign
ENCODING 35
SWIDTH 697 0
DWIDTH 17 0
BBX 15 18 1 0
BITMAP
030C
031C
0718
0618
0618
3FFE
3FFE
0C30
0C70
1860
1860
FFF8
FFF8
30C0
30C0
3180
6180
6180
ENDCHAR
STARTCHAR dollar
ENCODING 36
SWIDTH 744 0
DWIDTH 18 0
BBX 15 18 1 0
BITMAP
0180
0180
3FFE
7FFE
7FFE
E180
E180
6180
7FFC
3FFE
0186
0186
0186
7FFE
7FFE
7FF8
0180
0180
ENDCHAR
STARTCHAR percent
ENCODING 37
SWIDTH 965 0
DWIDTH 23 0
BBX 21 21 1 -2
BITMAP
000060
3E00C0
7F0180
C18380
C18300
C18600
C18C00
C19C00
7F1800
3E3000
0063E0
00E7F0
00CE18
018C18
030C08
070C18
060618
0C07F0
1801E0
380000
700000
ENDCHAR
STARTCHAR ampersand
ENCODING 38
SWIDTH 759 0
DWIDTH 18 0
BBX 17 18 1 0
BITMAP
1F8000
3F8000
7F8000
780000
700000
700000
780000
3FFE00
3FFE00
7FFE00
F03800
E03800
E03800
E03800
783800
7FFF80
3FFF80
1FFF80
ENDCHAR
STARTCHAR quotesingle
ENCODING 39
SWIDTH 255 0
DWIDTH 6 0
BBX 3 6 2 12
BITMAP
E0
C0
C0
C0
C0
C0
ENDCHAR
STARTCHAR parenleft
ENCODING 40
SWIDTH 356 0
DWIDTH 9 0
BBX 5 23 2 -2
BITMAP
18
30
30
70
60
60
60
60
C0
C0
C0
C0
C0
C0
C0
60
60
60
60
30
30
30
18
ENDCHAR
STARTCHAR parenright
ENCODING 41
SWIDTH 355 0
DWIDTH 9 0
BBX 4 23 2 -2
BITMAP
C0
C0
60
60
60
70
30
30
30
30
30
30
30
30
30
30
30
70
60
60
60
C0
C0
ENDCHAR
STARTCHAR asterisk
ENCODING 42
SWIDTH 469 0
DWIDTH 11 0
BBX 8 8 2 10
BITMAP
10
10
92
FF
38
38
6C
46
ENDCHAR
STARTCHAR plus
ENCODING 43
SWIDTH 690 0
DWIDTH 17 0
BBX 13 14 2 2
BITMAP
0600
0600
0600
0600
0600
0600
FFF8
FFF8
0600
0600
0600
0600
0600
0600
ENDCHAR
STARTCHAR comma
ENCODING 44
SWIDTH 259 0
DWIDTH 6 0
BBX 3 6 2 -3
BITMAP
E0
C0
C0
C0
C0
C0
ENDCHAR
STARTCHAR hyphen
ENCODING 45
SWIDTH 296 0
DWIDTH 7 0
BBX 5 2 1 8
BITMAP
F8
F8
ENDCHAR
STARTCHAR period
ENCODING 46
SWIDTH 262 0
DWIDTH 6 0
BBX 3 3 2 0
BITMAP
C0
E0
C0
ENDCHAR
STARTCHAR slash
ENCODING 47
SWIDTH 444 0
DWIDTH 11 0
BBX 10 18 0 0
BITMAP
00C0
00C0
0180
0180
0300
0300
0700
0600
0600
0C00
0C00
1800
1800
3000
3000
6000
6000
E000
ENDCHAR
STARTCHAR zero
ENCODING 48
SWIDTH 838 0
DWIDTH 20 0
BBX 18 18 1 0
BITMAP
03F000
0FFC00
1FFF00
3E1F00
780780
700380
F001C0
E001C0
E001C0
E001C0
E001C0
F001C0
700380
780780
3E1F00
1FFE00
0FFC00
03F000
ENDCHAR
STARTCHAR one
ENCODING 49
SWIDTH 385 0
DWIDTH 9 0
BBX 7 18 1 0
BITMAP
F0
F8
FC
1C
1E
0E
0E
0E
0E
0E
0E
0E
0E
0E
0E
0E
0E
0E
ENDCHAR
STARTCHAR two
ENCODING 50
SWIDTH 825 0
DWIDTH 20 0
BBX 17 18 2 0
BITMAP
FFFC00
FFFE00
FFFF00
000700
000780
000780
000F00
3FFF00
7FFE00
FFFC00
E00000
E00000
C00000
C00000
C00000
FFFF00
FFFF00
FFFF00
ENDCHAR
STARTCHAR three
ENCODING 51
SWIDTH 827 0
DWIDTH 20 0
BBX 18 18 1 0
BITMAP
FFFE00
FFFF00
FFFF80
000780
000380
000380
000780
0FFF00
0FFF00
0FFF80
000380
0003C0
0001C0
0003C0
000780
FFFF80
FFFF00
FFFE00
ENDCHAR
STARTCHAR four
ENCODING 52
SWIDTH 845 0
DWIDTH 20 0
BBX 19 18 1 0
BITMAP
E00700
E00700
E00700
E00700
E00700
E00700
E00700
E00700
E00700
F00700
7FFFE0
7FFFE0
1FFFE0
000700
000700
000700
000700
000700
ENDCHAR
STARTCHAR five
ENCODING 53
SWIDTH 885 0
DWIDTH 21 0
BBX 18 18 2 0
BITMAP
FFFF80
FFFF80
FFFF80
E00000
E00000
E00000
E00000
FFFF00
FFFF80
FFFF80
0003C0
0001C0
0001C0
0001C0
0003C0
FFFF80
FFFF80
FFFE00
ENDCHAR
STARTCHAR six
ENCODING 54
SWIDTH 872 0
DWIDTH 21 0
BBX 19 18 1 0
BITMAP
07FFC0
1FFFC0
3FFFC0
7C0000
700000
E00000
E00000
FFFF00
FFFFC0
FFFFC0
E001C0
E000E0
F000E0
7000E0
7C01C0
3FFFC0
1FFF80
07FF00
ENDCHAR
STARTCHAR seven
ENCODING 55
SWIDTH 756 0
DWIDTH 18 0
BBX 17 18 1 0
BITMAP
FFFF00
FFFF80
FFFF00
000F00
001E00
003C00
007800
007000
00F000
01E000
03C000
078000
078000
0F0000
1E0000
3C0000
780000
F80000
ENDCHAR
STARTCHAR eight
ENCODING 56
SWIDTH 898 0
DWIDTH 22 0
BBX 19 18 1 0
BITMAP
1FFF00
3FFFC0
7FFFE0
7801E0
7000E0
7000E0
7001E0
3FFFC0
3FFFC0
7FFFE0
F001E0
E000E0
E000E0
F000E0
7801E0
7FFFE0
3FFFC0
1FFF00
ENDCHAR
STARTCHAR nine
ENCODING 57
SWIDTH 861 0
DWIDTH 21 0
BBX 19 18 1 0
BITMAP
1FFC00
3FFF00
7FFF80
F00780
E003C0
E001C0
E001C0
F000E0
FFFFE0
7FFFE0
3FFFE0
0001C0
0001C0
0003C0
0007C0
3FFF80
3FFF00
3FFC00
ENDCHAR
STARTCHAR colon
ENCODING 58
SWIDTH 262 0
DWIDTH 6 0
BBX 3 11 2 0
BITMAP
C0
E0
C0
00
00
00
00
00
C0
E0
C0
ENDCHAR
STARTCHAR semicolon
ENCODING 59
SWIDTH 262 0
DWIDTH 6 0
BBX 3 14 2 -3
BITMAP
C0
E0
C0
00
00
00
00
00
E0
C0
C0
C0
C0
C0
ENDCHAR
STARTCHAR less
ENCODING 60
SWIDTH 690 0
DWIDTH 17 0
BBX 13 14 2 2
BITMAP
0008
0038
00F8
07C0
1F00
7800
E000
F000
7C00
0F80
03E0
00F8
0018
0008
ENDCHAR
STARTCHAR equal
ENCODING 61
SWIDTH 690 0
DWIDTH 17 0
BBX 13 9 2 5
BITMAP
FFF8
FFF8
0000
0000
0000
0000
0000
FFF8
FFF8
ENDCHAR
STARTCHAR greater
ENCODING 62
SWIDTH 690 0
DWIDTH 17 0
BBX 13 14 2 2
BITMAP
8000
E000
F800
3E00
07C0
01F0
0038
0078
03E0
0F80
7C00
F000
C000
8000
ENDCHAR
STARTCHAR question
ENCODING 63
SWIDTH 776 0
DWIDTH 19 0
BBX 17 18 1 0
BITMAP
FFFC00
FFFF00
FFFF00
000780
000380
000380
000780
1FFF00
3FFF00
3FFC00
380000
380000
000000
000000
000000
300000
380000
300000
ENDCHAR
STARTCHAR at
ENCODING 64
SWIDTH 833 0
DWIDTH 20 0
BBX 17 18 1 0
BITMAP
03FF80
0FFF80
1E0180
380180
700180
61F980
E3F980
C61980
C61980
C61980
C71980
E3FF80
61FF80
700000
380000
3E0000
0FFF80
03FF80
ENDCHAR
STARTCHAR A
ENCODING 65
SWIDTH 989 0
DWIDTH 24 0
BBX 23 18 0 0
BITMAP
001800
003C00
007C00
007E00
00FE00
00EF00
01E780
01C380
0383C0
0781C0
0701E0
0F3FF0
0E7FF0
1C7FF8
3C0038
38003C
78001C
F0001E
ENDCHAR
STARTCHAR B
ENCODING 66
SWIDTH 891 0
DWIDTH 21 0
BBX 19 18 1 0
BITMAP
FFFF00
FFFFC0
FFFFE0
F001E0
F000E0
F000E0
F001C0
F3FFC0
F3FF80
F3FFC0
F001E0
F000E0
F000E0
F000E0
F001E0
FFFFC0
FFFFC0
FFFF00
ENDCHAR
STARTCHAR C
ENCODING 67
SWIDTH 829 0
DWIDTH 20 0
BBX 18 18 1 0
BITMAP
07FFC0
0FFFC0
3FFFC0
3E0000
780000
700000
F00000
E00000
E00000
E00000
E00000
F00000
700000
780000
3E0000
1FFFC0
0FFFC0
03FFC0
ENDCHAR
STARTCHAR D
ENCODING 68
SWIDTH 879 0
DWIDTH 21 0
BBX 18 18 2 0
BITMAP
FFF800
FFFE00
FFFF00
E01F80
E00780
E003C0
E001C0
E001C0
E001C0
E001C0
E001C0
E001C0
E00380
E00780
E01F00
FFFF00
FFFC00
FFF000
ENDCHAR
STARTCHAR E
ENCODING 69
SWIDTH 759 0
DWIDTH 18 0
BBX 15 18 2 0
BITMAP
FFFE
FFFE
FFFE
E000
E000
E000
E000
E7FC
E7FC
E7FC
E000
E000
E000
E000
E000
FFFE
FFFE
FFFE
ENDCHAR
STARTCHAR F
ENCODING 70
SWIDTH 705 0
DWIDTH 17 0
BBX 14 18 2 0
BITMAP
FFFC
FFFC
FFFC
E000
E000
E000
E000
E000
E7FC
E7FC
E7FC
E000
E000
E000
E000
E000
E000
E000
ENDCHAR
STARTCHAR G
ENCODING 71
SWIDTH 888 0
DWIDTH 21 0
BBX 19 18 1 0
BITMAP
07FFC0
0FFFC0
3FFFC0
3E0000
780000
700000
F00000
E0FFE0
E0FFE0
E0FFE0
E000E0
F000E0
7000E0
7800E0
3E00E0
1FFFE0
0FFFE0
03FFE0
ENDCHAR
STARTCHAR H
ENCODING 72
SWIDTH 838 0
DWIDTH 20 0
BBX 17 18 2 0
BITMAP
E00380
E00380
E00380
E00380
E00380
E00380
E00380
E7FF80
E7FF80
E7FF80
E00380
E00380
E00380
E00380
E00380
E00380
E00380
E00380
ENDCHAR
STARTCHAR I
ENCODING 73
SWIDTH 267 0
DWIDTH 6 0
BBX 3 18 2 0
BITMAP
E0
E0
E0
E0
E0
E0
E0
E0
E0
E0
E0
E0
E0
E0
E0
E0
E0
E0
ENDCHAR
STARTCHAR J
ENCODING 74
SWIDTH 708 0
DWIDTH 17 0
BBX 15 18 1 0
BITMAP
000E
000E
000E
000E
000E
000E
000E
000E
000E
000E
000E
000E
001C
003C
007C
FFF8
FFF0
FFC0
ENDCHAR
STARTCHAR K
ENCODING 75
SWIDTH 875 0
DWIDTH 21 0
BBX 19 18 2 0
BITMAP
E007C0
E00F00
E03E00
E07C00
E0F000
E1E000
E7C000
EF8000
FE0000
EF0000
E78000
E3C000
E1E000
E0F800
E03C00
E01E00
E00F80
E007E0
ENDCHAR
STARTCHAR L
ENCODING 76
SWIDTH 707 0
DWIDTH 17 0
BBX 14 18 2 0
BITMAP
E000
E000
E000
E000
E000
E000
E000
E000
E000
E000
E000
E000
E000
E000
E000
FFFC
FFFC
FFFC
ENDCHAR
STARTCHAR M
ENCODING 77
SWIDTH 1115 0
DWIDTH 27 0
BBX 25 18 1 0
BITMAP
0E003000
0E003800
0F007800
1F007800
1F80FC00
1F80FC00
1F80DC00
39C1DC00
39C1CE00
38E38E00
38E38E00
70F70F00
70770700
70760700
703E0700
E03E0380
E01C0380
E01C0380
ENDCHAR
STARTCHAR N
ENCODING 78
SWIDTH 873 0
DWIDTH 21 0
BBX 19 18 1 0
BITMAP
6000E0
F000E0
F800E0
FC00E0
FE00E0
EF00E0
E780E0
E3C0E0
E1E0E0
E0F0E0
E078E0
E03CE0
E01EE0
E00FE0
E007E0
E003E0
E001E0
E000C0
ENDCHAR
STARTCHAR O
ENCODING 79
SWIDTH 968 0
DWIDTH 23 0
BBX 21 18 1 0
BITMAP
07FF00
0FFFC0
3FFFE0
3E01F0
7800F0
700078
F00038
E00038
E00038
E00038
E00038
F00038
700078
7800F0
3E01F0
1FFFE0
0FFFC0
03FF00
ENDCHAR
STARTCHAR P
ENCODING 80
SWIDTH 867 0
DWIDTH 21 0
BBX 18 18 2 0
BITMAP
FFFE00
FFFF00
FFFF80
E007C0
E001C0
E001C0
E001C0
E001C0
E001C0
E007C0
E7FF80
E7FF00
E7FE00
E00000
E00000
E00000
E00000
E00000
ENDCHAR
STARTCHAR Q
ENCODING 81
SWIDTH 968 0
DWIDTH 23 0
BBX 22 18 1 0
BITMAP
07FF00
0FFFC0
3FFFE0
3E01F0
7800F0
700078
F00038
E00038
E00038
E00038
E04038
F03C38
700E78
7807F0
3E03F0
1FFFE0
0FFFF0
03FF3C
ENDCHAR
STARTCHAR R
ENCODING 82
SWIDTH 921 0
DWIDTH 22 0
BBX 20 18 2 0
BITMAP
FFFE00
FFFF00
FFFF80
E003C0
E001C0
E001C0
E001C0
E001C0
E001C0
E003C0
E7FF80
E7FF80
E7FE00
E00F00
E00780
E007C0
E003E0
E001F0
ENDCHAR
STARTCHAR S
ENCODING 83
SWIDTH 880 0
DWIDTH 21 0
BBX 19 18 1 0
BITMAP
1FFFC0
3FFFC0
7FFFC0
F00000
E00000
E00000
F00000
7FFF80
3FFFC0
1FFFC0
0001E0
0000E0
0000E0
0000E0
0001E0
7FFFC0
7FFFC0
7FFF00
ENDCHAR
STARTCHAR T
ENCODING 84
SWIDTH 720 0
DWIDTH 17 0
BBX 17 18 0 0
BITMAP
FFFF80
FFFF80
FFFF80
01C000
01C000
01C000
01C000
01C000
01C000
01C000
01C000
01C000
01C000
01C000
01C000
01C000
01C000
01C000
ENDCHAR
STARTCHAR U
ENCODING 85
SWIDTH 889 0
DWIDTH 21 0
BBX 19 18 1 0
BITMAP
E000E0
E000E0
E000E0
E000E0
E000E0
E000E0
E000E0
E000E0
E000E0
E000E0
E000E0
F000E0
F000E0
7801E0
7C07C0
3FFF80
1FFF00
07FC00
ENDCHAR
STARTCHAR V
ENCODING 86
SWIDTH 989 0
DWIDTH 24 0
BBX 23 18 0 0
BITMAP
F0000E
78001E
38003C
3C0038
1E0078
0E0070
0F00F0
0700E0
0781C0
03C3C0
01C380
01E780
00E700
00FE00
007E00
007C00
003C00
001800
ENDCHAR
STARTCHAR W
ENCODING 87
SWIDTH 1268 0
DWIDTH 30 0
BBX 30 18 0 0
BITMAP
F078003C
783C0038
383C0078
3C1E0070
1C1E00F0
1E0F00E0
0E0F01E0
0F0781C0
070383C0
0787C380
0387C780
03CFC700
01CEEE00
00FCEE00
00FC7C00
00787C00
00783800
00303800
ENDCHAR
STARTCHAR X
ENCODING 88
SWIDTH 1000 0
DWIDTH 24 0
BBX 22 18 1 0
BITMAP
F8007C
3C00F0
1E01E0
0F03C0
078780
03CF00
01FE00
00FC00
007800
00FC00
01FE00
03DF00
078F80
0F07C0
1E01E0
3C00F0
780078
F0003C
ENDCHAR
STARTCHAR Y
ENCODING 89
SWIDTH 926 0
DWIDTH 22 0
BBX 22 18 0 0
BITMAP
F8003C
3C0078
3C00F0
1E01E0
0F03C0
078380
03C780
03CF00
01FE00
00FC00
007800
003800
003800
003800
003800
003800
003800
003800
ENDCHAR
STARTCHAR Z
ENCODING 90
SWIDTH 802 0
DWIDTH 19 0
BBX 17 18 1 0
BITMAP
FFFF80
FFFF80
FFFF80
000F00
001E00
003C00
007800
00F000
01E000
03C000
078000
0F0000
1E0000
3C0000
780000
FFFF80
FFFF80
FFFF80
ENDCHAR
STARTCHAR bracketleft
ENCODING 91
SWIDTH 333 0
DWIDTH 8 0
BBX 4 23 2 -2
BITMAP
F0
F0
C0
C0
C0
C0
C0
C0
C0
C0
C0
C0
C0
C0
C0
C0
C0
C0
C0
C0
C0
F0
F0
ENDCHAR
STARTCHAR backslash
ENCODING 92
SWIDTH 445 0
DWIDTH 11 0
BBX 10 18 0 0
BITMAP
C000
6000
6000
3000
3000
1800
1800
0C00
0C00
0E00
0600
0600
0300
0300
0180
0180
00C0
00C0
ENDCHAR
STARTCHAR bracketright
ENCODING 93
SWIDTH 333 0
DWIDTH 8 0
BBX 4 23 2 -2
BITMAP
F0
F0
30
30
30
30
30
30
30
30
30
30
30
30
30
30
30
30
30
30
30
F0
F0
ENDCHAR
STARTCHAR asciicircum
ENCODING 94
SWIDTH 559 0
DWIDTH 13 0
BBX 10 11 2 7
BITMAP
0C00
1C00
1E00
1600
3600
3300
6300
6180
6180
C180
C0C0
ENDCHAR
STARTCHAR underscore
ENCODING 95
SWIDTH 668 0
DWIDTH 16 0
BBX 16 1 0 -4
BITMAP
FFFF
ENDCHAR
STARTCHAR grave
ENCODING 96
SWIDTH 362 0
DWIDTH 9 0
BBX 6 3 1 19
BITMAP
E0
FC
04
ENDCHAR
STARTCHAR a
ENCODING 97
SWIDTH 989 0
DWIDTH 24 0
BBX 23 18 0 0
BITMAP
001800
003C00
007C00
007E00
00FE00
00EF00
01E780
01C380
0383C0
0781C0
0701E0
0F3FF0
0E7FF0
1C7FF8
3C0038
38003C
78001C
F0001E
ENDCHAR
STARTCHAR b
ENCODING 98
SWIDTH 891 0
DWIDTH 21 0
BBX 19 18 1 0
BITMAP
FFFF00
FFFFC0
FFFFE0
F001E0
F000E0
F000E0
F001C0
F3FFC0
F3FF80
F3FFC0
F001E0
F000E0
F000E0
F000E0
F001E0
FFFFC0
FFFFC0
FFFF00
ENDCHAR
STARTCHAR c
ENCODING 99
SWIDTH 829 0
DWIDTH 20 0
BBX 18 18 1 0
BITMAP
07FFC0
0FFFC0
3FFFC0
3E0000
780000
700000
F00000
E00000
E00000
E00000
E00000
F00000
700000
780000
3E0000
1FFFC0
0FFFC0
03FFC0
ENDCHAR
STARTCHAR d
ENCODING 100
SWIDTH 879 0
DWIDTH 21 0
BBX 18 18 2 0
BITMAP
FFF800
FFFE00
FFFF00
E01F80
E00780
E003C0
E001C0
E001C0
E001C0
E001C0
E001C0
E001C0
E00380
E00780
E01F00
FFFF00
FFFC00
FFF000
ENDCHAR
STARTCHAR e
ENCODING 101
SWIDTH 759 0
DWIDTH 18 0
BBX 15 18 2 0
BITMAP
FFFE
FFFE
FFFE
E000
E000
E000
E000
E7FC
E7FC
E7FC
E000
E000
E000
E000
E000
FFFE
FFFE
FFFE
ENDCHAR
STARTCHAR f
ENCODING 102
SWIDTH 705 0
DWIDTH 17 0
BBX 14 18 2 0
BITMAP
FFFC
FFFC
FFFC
E000
E000
E000
E000
E000
E7FC
E7FC
E7FC
E000
E000
E000
E000
E000
E000
E000
ENDCHAR
STARTCHAR g
ENCODING 103
SWIDTH 888 0
DWIDTH 21 0
BBX 19 18 1 0
BITMAP
07FFC0
0FFFC0
3FFFC0
3E0000
780000
700000
F00000
E0FFE0
E0FFE0
E0FFE0
E000E0
F000E0
7000E0
7800E0
3E00E0
1FFFE0
0FFFE0
03FFE0
ENDCHAR
STARTCHAR h
ENCODING 104
SWIDTH 838 0
DWIDTH 20 0
BBX 17 18 2 0
BITMAP
E00380
E00380
E00380
E00380
E00380
E00380
E00380
E7FF80
E7FF80
E7FF80
E00380
E00380
E00380
E00380
E00380
E00380
E00380
E00380
ENDCHAR
STARTCHAR i
ENCODING 105
SWIDTH 267 0
DWIDTH 6 0
BBX 3 18 2 0
BITMAP
E0
E0
E0
E0
E0
E0
E0
E0
E0
E0
E0
E0
E0
E0
E0
E0
E0
E0
ENDCHAR
STARTCHAR j
ENCODING 106
SWIDTH 708 0
DWIDTH 17 0
BBX 15 18 1 0
BITMAP
000E
000E
000E
000E
000E
000E
000E
000E
000E
000E
000E
000E
001C
003C
007C
FFF8
FFF0
FFC0
ENDCHAR
STARTCHAR k
ENCODING 107
SWIDTH 875 0
DWIDTH 21 0
BBX 19 18 2 0
BITMAP
E007C0
E00F00
E03E00
E07C00
E0F000
E1E000
E7C000
EF8000
FE0000
EF0000
E78000
E3C000
E1E000
E0F800
E03C00
E01E00
E00F80
E007E0
ENDCHAR
STARTCHAR l
ENCODING 108
SWIDTH 707 0
DWIDTH 17 0
BBX 14 18 2 0
BITMAP
E000
E000
E000
E000
E000
E000
E000
E000
E000
E000
E000
E000
E000
E000
E000
FFFC
FFFC
FFFC
ENDCHAR
STARTCHAR m
ENCODING 109
SWIDTH 1115 0
DWIDTH 27 0
BBX 25 18 1 0
BITMAP
0E003000
0E003800
0F007800
1F007800
1F80FC00
1F80FC00
1F80DC00
39C1DC00
39C1CE00
38E38E00
38E38E00
70F70F00
70770700
70760700
703E0700
E03E0380
E01C0380
E01C0380
ENDCHAR
STARTCHAR n
ENCODING 110
SWIDTH 873 0
DWIDTH 21 0
BBX 19 18 1 0
BITMAP
6000E0
F000E0
F800E0
FC00E0
FE00E0
EF00E0
E780E0
E3C0E0
E1E0E0
E0F0E0
E078E0
E03CE0
E01EE0
E00FE0
E007E0
E003E0
E001E0
E000C0
ENDCHAR
STARTCHAR o
ENCODING 111
SWIDTH 968 0
DWIDTH 23 0
BBX 21 18 1 0
BITMAP
07FF00
0FFFC0
3FFFE0
3E01F0
7800F0
700078
F00038
E00038
E00038
E00038
E00038
F00038
700078
7800F0
3E01F0
1FFFE0
0FFFC0
03FF00
ENDCHAR
STARTCHAR p
ENCODING 112
SWIDTH 867 0
DWIDTH 21 0
BBX 18 18 2 0
BITMAP
FFFE00
FFFF00
FFFF80
E007C0
E001C0
E001C0
E001C0
E001C0
E001C0
E007C0
E7FF80
E7FF00
E7FE00
E00000
E00000
E00000
E00000
E00000
ENDCHAR
STARTCHAR q
ENCODING 113
SWIDTH 968 0
DWIDTH 23 0
BBX 22 18 1 0
BITMAP
07FF00
0FFFC0
3FFFE0
3E01F0
7800F0
700078
F00038
E00038
E00038
E00038
E04038
F03C38
700E78
7807F0
3E03F0
1FFFE0
0FFFF0
03FF3C
ENDCHAR
STARTCHAR r
ENCODING 114
SWIDTH 921 0
DWIDTH 22 0
BBX 20 18 2 0
BITMAP
FFFE00
FFFF00
FFFF80
E003C0
E001C0
E001C0
E001C0
E001C0
E001C0
E003C0
E7FF80
E7FF80
E7FE00
E00F00
E00780
E007C0
E003E0
E001F0
ENDCHAR
STARTCHAR s
ENCODING 115
SWIDTH 880 0
DWIDTH 21 0
BBX 19 18 1 0
BITMAP
1FFFC0
3FFFC0
7FFFC0
F00000
E00000
E00000
F00000
7FFF80
3FFFC0
1FFFC0
0001E0
0000E0
0000E0
0000E0
0001E0
7FFFC0
7FFFC0
7FFF00
ENDCHAR
STARTCHAR t
ENCODING 116
SWIDTH 720 0
DWIDTH 17 0
BBX 17 18 0 0
BITMAP
FFFF80
FFFF80
FFFF80
01C000
01C000
01C000
01C000
01C000
01C000
01C000
01C000
01C000
01C000
01C000
01C000
01C000
01C000
01C000
ENDCHAR
STARTCHAR u
ENCODING 117
SWIDTH 889 0
DWIDTH 21 0
BBX 19 18 1 0
BITMAP
E000E0
E000E0
E000E0
E000E0
E000E0
E000E0
E000E0
E000E0
E000E0
E000E0
E000E0
F000E0
F000E0
7801E0
7C07C0
3FFF80
1FFF00
07FC00
ENDCHAR
STARTCHAR v
ENCODING 118
SWIDTH 989 0
DWIDTH 24 0
BBX 23 18 0 0
BITMAP
F0000E
78001E
38003C
3C0038
1E0078
0E0070
0F00F0
0700E0
0781C0
03C3C0
01C380
01E780
00E700
00FE00
007E00
007C00
003C00
001800
ENDCHAR
STARTCHAR w
ENCODING 119
SWIDTH 1268 0
DWIDTH 30 0
BBX 30 18 0 0
BITMAP
F078003C
783C0038
383C0078
3C1E0070
1C1E00F0
1E0F00E0
0E0F01E0
0F0781C0
070383C0
0787C380
0387C780
03CFC700
01CEEE00
00FCEE00
00FC7C00
00787C00
00783800
00303800
ENDCHAR
STARTCHAR x
ENCODING 120
SWIDTH 1000 0
DWIDTH 24 0
BBX 22 18 1 0
BITMAP
F8007C
3C00F0
1E01E0
0F03C0
078780
03CF00
01FE00
00FC00
007800
00FC00
01FE00
03DF00
078F80
0F07C0
1E01E0
3C00F0
780078
F0003C
ENDCHAR
STARTCHAR y
ENCODING 121
SWIDTH 926 0
DWIDTH 22 0
BBX 22 18 0 0
BITMAP
F8003C
3C0078
3C00F0
1E01E0
0F03C0
078380
03C780
03CF00
01FE00
00FC00
007800
003800
003800
003800
003800
003800
003800
003800
ENDCHAR
STARTCHAR z
ENCODING 122
SWIDTH 802 0
DWIDTH 19 0
BBX 17 18 1 0
BITMAP
FFFF80
FFFF80
FFFF80
000F00
001E00
003C00
007800
00F000
01E000
03C000
078000
0F0000
1E0000
3C0000
780000
FFFF80
FFFF80
FFFF80
ENDCHAR
STARTCHAR braceleft
ENCODING 123
SWIDTH 337 0
DWIDTH 8 0
BBX 6 23 1 -2
BITMAP
1C
3C
30
30
30
30
30
30
30
30
30
E0
E0
30
30
30
30
30
30
30
30
3C
1C
ENDCHAR
STARTCHAR bar
ENCODING 124
SWIDTH 297 0
DWIDTH 7 0
BBX 1 23 3 -2
BITMAP
80
80
80
80
80
80
80
80
80
80
80
80
80
80
80
80
80
80
80
80
80
80
80
ENDCHAR
STARTCHAR braceright
ENCODING 125
SWIDTH 337 0
DWIDTH 8 0
BBX 6 23 1 -2
BITMAP
E0
F0
30
30
30
30
30
30
30
30
30
1C
1C
30
30
30
30
30
30
30
30
F0
E0
ENDCHAR
STARTCHAR asciitilde
ENCODING 126
SWIDTH 691 0
DWIDTH 17 0
BBX 13 4 2 7
BITMAP
7808
FF18
87F8
81F0
ENDCHAR
STARTCHAR nonbreakingspace
ENCODING 160
SWIDTH 294 0
DWIDTH 7 0
BBX 1 1 0 0
BITMAP
00
ENDCHAR
STARTCHAR exclamdown
ENCODING 161
SWIDTH 298 0
DWIDTH 7 0
BBX 3 18 2 -1
BITMAP
E0
E0
E0
00
00
00
E0
E0
E0
E0
E0
E0
E0
E0
E0
E0
E0
E0
ENDCHAR
STARTCHAR cent
ENCODING 162
SWIDTH 692 0
DWIDTH 17 0
BBX 14 18 1 0
BITMAP
0040
0040
0FFC
3FFC
7FFC
7840
E040
E040
C040
C040
E040
E040
7840
7FFC
3FFC
0FFC
0040
0040
ENDCHAR
STARTCHAR sterling
ENCODING 163
SWIDTH 709 0
DWIDTH 17 0
BBX 15 18 1 0
BITMAP
07F0
1FF0
3FF0
3C00
3800
3800
3800
3800
7FC0
7FC0
3800
3800
3800
3800
3800
FFFE
FFFE
FFFE
ENDCHAR
STARTCHAR yen
ENCODING 165
SWIDTH 787 0
DWIDTH 19 0
BBX 18 18 0 0
BITMAP
F003C0
780380
3C0780
1C0700
1E0E00
0E1E00
071C00
07BC00
03B800
01F000
1FFF00
1FFF00
00E000
00E000
1FFF00
1FFF00
00E000
00E000
ENDCHAR
STARTCHAR brokenbar
ENCODING 166
SWIDTH 297 0
DWIDTH 7 0
BBX 1 23 3 -2
BITMAP
80
80
80
80
80
80
80
80
80
80
00
00
00
80
80
80
80
80
80
80
80
80
80
ENDCHAR
STARTCHAR section
ENCODING 167
SWIDTH 773 0
DWIDTH 19 0
BBX 16 23 1 -5
BITMAP
1FFC
7FFC
7FFC
F000
E000
E000
E000
7000
7FFC
3FFE
700E
7006
7006
780E
3FFC
1FFE
0007
0007
0007
000F
3FFF
3FFE
3FFC
ENDCHAR
STARTCHAR dieresis
ENCODING 168
SWIDTH 393 0
DWIDTH 9 0
BBX 7 2 1 20
BITMAP
E6
E6
ENDCHAR
STARTCHAR copyright
ENCODING 169
SWIDTH 829 0
DWIDTH 20 0
BBX 18 18 1 0
BITMAP
03F000
0C0C00
100200
200100
400080
41F080
860040
840040
8C0040
8C0040
840040
860040
41F080
400080
200100
100200
0C0C00
03F000
ENDCHAR
STARTCHAR ordfeminine
ENCODING 170
SWIDTH 604 0
DWIDTH 15 0
BBX 13 10 1 7
BITMAP
0600
0700
0F00
0980
1980
30C0
37E0
6060
6030
C038
ENDCHAR
STARTCHAR guillemotleft
ENCODING 171
SWIDTH 629 0
DWIDTH 15 0
BBX 13 9 1 5
BITMAP
0208
0618
1C70
70C0
C300
E180
30E0
0C30
0608
ENDCHAR
STARTCHAR registered
ENCODING 174
SWIDTH 585 0
DWIDTH 14 0
BBX 11 12 2 6
BITMAP
1E00
6180
4080
9E40
A140
A120
AE20
A340
8040
4080
6180
1E00
ENDCHAR
STARTCHAR macron
ENCODING 175
SWIDTH 362 0
DWIDTH 9 0
BBX 6 1 1 20
BITMAP
FC
ENDCHAR
STARTCHAR degree
ENCODING 176
SWIDTH 361 0
DWIDTH 9 0
BBX 7 6 1 12
BITMAP
78
C4
86
86
C4
7C
ENDCHAR
STARTCHAR plusminus
ENCODING 177
SWIDTH 690 0
DWIDTH 17 0
BBX 13 17 2 -1
BITMAP
0600
0600
0600
0600
0600
0600
FFF8
FFF8
0600
0600
0600
0600
0600
0600
0000
FFF8
FFF8
ENDCHAR
STARTCHAR twosuperior
ENCODING 178
SWIDTH 442 0
DWIDTH 11 0
BBX 9 9 1 9
BITMAP
FF00
FF00
0180
0100
7F00
C000
C000
FF00
FF00
ENDCHAR
STARTCHAR threesuperior
ENCODING 179
SWIDTH 443 0
DWIDTH 11 0
BBX 9 9 1 9
BITMAP
FF00
FF00
0180
0100
3E00
0180
0180
FF00
FF00
ENDCHAR
STARTCHAR acute
ENCODING 180
SWIDTH 362 0
DWIDTH 9 0
BBX 6 3 1 19
BITMAP
1C
FC
C0
ENDCHAR
STARTCHAR paragraph
ENCODING 182
SWIDTH 629 0
DWIDTH 15 0
BBX 13 20 1 -2
BITMAP
3FF8
7FF8
FF18
FF18
FF18
FF18
7F18
3F18
0318
0318
0318
0318
0318
0318
0318
0318
0318
0318
0318
0318
ENDCHAR
STARTCHAR periodcentered
ENCODING 183
SWIDTH 262 0
DWIDTH 6 0
BBX 3 3 2 7
BITMAP
C0
E0
C0
ENDCHAR
STARTCHAR cedilla
ENCODING 184
SWIDTH 219 0
DWIDTH 5 0
BBX 3 4 1 -5
BITMAP
E0
60
40
40
ENDCHAR
STARTCHAR onesuperior
ENCODING 185
SWIDTH 222 0
DWIDTH 5 0
BBX 3 9 1 9
BITMAP
C0
E0
20
20
20
20
20
20
20
ENDCHAR
STARTCHAR ordmasculine
ENCODING 186
SWIDTH 592 0
DWIDTH 14 0
BBX 12 10 1 7
BITMAP
1F80
7FE0
6060
C030
C030
C030
C030
6060
3FE0
1F80
ENDCHAR
STARTCHAR guillemotright
ENCODING 187
SWIDTH 629 0
DWIDTH 15 0
BBX 13 9 1 5
BITMAP
8200
C300
70C0
1870
0618
0C38
3860
6180
C300
ENDCHAR
STARTCHAR onequarter
ENCODING 188
SWIDTH 972 0
DWIDTH 23 0
BBX 21 21 1 -2
BITMAP
0001C0
380180
380300
0C0600
0C0C00
0C0C00
0C1800
0C3000
0C6000
0C6000
00CC10
018C10
030C10
030C10
060C10
0C0FF8
1807F8
180010
300010
600000
C00000
ENDCHAR
STARTCHAR onehalf
ENCODING 189
SWIDTH 948 0
DWIDTH 23 0
BBX 21 21 1 -2
BITMAP
0001C0
380180
380300
0C0600
0C0C00
0C0C00
0C1800
0C3000
0C6000
0C6000
00CFF0
018FF8
030018
030018
0607F0
0C0C00
180C00
180FF8
300FF8
600000
C00000
ENDCHAR
STARTCHAR threequarters
ENCODING 190
SWIDTH 1029 0
DWIDTH 25 0
BBX 23 21 1 -2
BITMAP
000060
FF00C0
FF0180
018380
010300
3F0600
018C00
019C00
FF9800
FF3000
006608
00E608
00C608
018608
030608
0703FE
0601FE
0C0008
180008
380000
700000
ENDCHAR
STARTCHAR questiondown
ENCODING 191
SWIDTH 776 0
DWIDTH 19 0
BBX 17 18 1 -1
BITMAP
000E00
000E00
000E00
000000
000000
000000
000E00
000E00
3FFE00
7FFC00
FFF800
E00000
E00000
E00000
F00000
FFFF80
7FFF80
3FFF80
ENDCHAR
STARTCHAR Agrave
ENCODING 192
SWIDTH 989 0
DWIDTH 24 0
BBX 23 22 0 0
BITMAP
00E000
00FC00
000C00
000000
001800
003C00
007C00
007E00
00FE00
00EF00
01E780
01C380
0383C0
0781C0
0701E0
0F3FF0
0E7FF0
1C7FF8
3C0038
38003C
78001C
F0001E
ENDCHAR
STARTCHAR Aacute
ENCODING 193
SWIDTH 989 0
DWIDTH 24 0
BBX 23 22 0 0
BITMAP
000700
007F00
006000
000000
001800
003C00
007C00
007E00
00FE00
00EF00
01E780
01C380
0383C0
0781C0
0701E0
0F3FF0
0E7FF0
1C7FF8
3C0038
38003C
78001C
F0001E
ENDCHAR
STARTCHAR Acircumflex
ENCODING 194
SWIDTH 989 0
DWIDTH 24 0
BBX 23 22 0 0
BITMAP
003800
002C00
006600
000000
001800
003C00
007C00
007E00
00FE00
00EF00
01E780
01C380
0383C0
0781C0
0701E0
0F3FF0
0E7FF0
1C7FF8
3C0038
38003C
78001C
F0001E
ENDCHAR
STARTCHAR Atilde
ENCODING 195
SWIDTH 989 0
DWIDTH 24 0
BBX 23 22 0 0
BITMAP
007200
005E00
000000
000000
001800
003C00
007C00
007E00
00FE00
00EF00
01E780
01C380
0383C0
0781C0
0701E0
0F3FF0
0E7FF0
1C7FF8
3C0038
38003C
78001C
F0001E
ENDCHAR
STARTCHAR Adieresis
ENCODING 196
SWIDTH 989 0
DWIDTH 24 0
BBX 23 22 0 0
BITMAP
00E600
006600
000000
000000
001800
003C00
007C00
007E00
00FE00
00EF00
01E780
01C380
0383C0
0781C0
0701E0
0F3FF0
0E7FF0
1C7FF8
3C0038
38003C
78001C
F0001E
ENDCHAR
STARTCHAR Aring
ENCODING 197
SWIDTH 989 0
DWIDTH 24 0
BBX 23 24 0 0
BITMAP
003C00
004200
004200
004200
003C00
000000
001800
003C00
007C00
007E00
00FE00
00EF00
01E780
01C380
0383C0
0781C0
0701E0
0F3FF0
0E7FF0
1C7FF8
3C0038
38003C
78001C
F0001E
ENDCHAR
STARTCHAR AE
ENCODING 198
SWIDTH 1345 0
DWIDTH 32 0
BBX 31 18 0 0
BITMAP
003FFFFE
003FFFFE
007FFFFE
00707000
00E07000
01E07000
01C07000
03C073FC
038073FC
070073FC
07007000
0E3FF000
1E7FF000
1C7FF000
3C007000
38007FFE
78007FFE
F0007FFE
ENDCHAR
STARTCHAR Ccedilla
ENCODING 199
SWIDTH 829 0
DWIDTH 20 0
BBX 18 23 1 -5
BITMAP
07FFC0
0FFFC0
3FFFC0
3E0000
780000
700000
F00000
E00000
E00000
E00000
E00000
F00000
700000
780000
3E0000
1FFFC0
0FFFC0
03FFC0
000000
00E000
00C000
004000
004000
ENDCHAR
STARTCHAR Egrave
ENCODING 200
SWIDTH 759 0
DWIDTH 18 0
BBX 15 22 2 0
BITMAP
1C00
1F80
0080
0000
FFFE
FFFE
FFFE
E000
E000
E000
E000
E7FC
E7FC
E7FC
E000
E000
E000
E000
E000
FFFE
FFFE
FFFE
ENDCHAR
STARTCHAR Eacute
ENCODING 201
SWIDTH 759 0
DWIDTH 18 0
BBX 15 22 2 0
BITMAP
00E0
07E0
0400
0000
FFFE
FFFE
FFFE
E000
E000
E000
E000
E7FC
E7FC
E7FC
E000
E000
E000
E000
E000
FFFE
FFFE
FFFE
ENDCHAR
STARTCHAR Ecircumflex
ENCODING 202
SWIDTH 759 0
DWIDTH 18 0
BBX 15 22 2 0
BITMAP
0380
0680
0CC0
0000
FFFE
FFFE
FFFE
E000
E000
E000
E000
E7FC
E7FC
E7FC
E000
E000
E000
E000
E000
FFFE
FFFE
FFFE
ENDCHAR
STARTCHAR Edieresis
ENCODING 203
SWIDTH 759 0
DWIDTH 18 0
BBX 15 22 2 0
BITMAP
0CE0
0CC0
0000
0000
FFFE
FFFE
FFFE
E000
E000
E000
E000
E7FC
E7FC
E7FC
E000
E000
E000
E000
E000
FFFE
FFFE
FFFE
ENDCHAR
STARTCHAR Igrave
ENCODING 204
SWIDTH 267 0
DWIDTH 6 0
BBX 7 22 -1 0
BITMAP
F0
FE
06
00
1C
1C
1C
1C
1C
1C
1C
1C
1C
1C
1C
1C
1C
1C
1C
1C
1C
1C
ENDCHAR
STARTCHAR Iacute
ENCODING 205
SWIDTH 267 0
DWIDTH 6 0
BBX 6 22 1 0
BITMAP
1C
FC
C0
00
70
70
70
70
70
70
70
70
70
70
70
70
70
70
70
70
70
70
ENDCHAR
STARTCHAR Icircumflex
ENCODING 206
SWIDTH 267 0
DWIDTH 6 0
BBX 7 22 0 0
BITMAP
38
68
4C
82
38
38
38
38
38
38
38
38
38
38
38
38
38
38
38
38
38
38
ENDCHAR
STARTCHAR Idieresis
ENCODING 207
SWIDTH 267 0
DWIDTH 6 0
BBX 7 22 0 0
BITMAP
CE
CC
00
00
38
38
38
38
38
38
38
38
38
38
38
38
38
38
38
38
38
38
ENDCHAR
STARTCHAR Eth
ENCODING 208
SWIDTH 877 0
DWIDTH 21 0
BBX 20 18 0 0
BITMAP
7FFC00
7FFF80
7FFFC0
7007E0
7001E0
7000F0
700070
FFE070
FFE070
FFE070
700070
700070
7000E0
7001E0
7007C0
7FFFC0
7FFF00
7FFE00
ENDCHAR
STARTCHAR Ntilde
ENCODING 209
SWIDTH 873 0
DWIDTH 21 0
BBX 19 22 1 0
BITMAP
018800
027000
000000
000000
6000E0
F000E0
F800E0
FC00E0
FE00E0
EF00E0
E780E0
E3C0E0
E1E0E0
E0F0E0
E078E0
E03CE0
E01EE0
E00FE0
E007E0
E003E0
E001E0
E000C0
ENDCHAR
STARTCHAR Ograve
ENCODING 210
SWIDTH 968 0
DWIDTH 23 0
BBX 21 22 1 0
BITMAP
01C000
01F800
001800
000000
07FF00
0FFFC0
3FFFE0
3E01F0
7800F0
700078
F00038
E00038
E00038
E00038
E00038
F00038
700078
7800F0
3E01F0
1FFFE0
0FFFC0
03FF00
ENDCHAR
STARTCHAR Oacute
ENCODING 211
SWIDTH 968 0
DWIDTH 23 0
BBX 21 22 1 0
BITMAP
001C00
00FC00
00C000
000000
07FF00
0FFFC0
3FFFE0
3E01F0
7800F0
700078
F00038
E00038
E00038
E00038
E00038
F00038
700078
7800F0
3E01F0
1FFFE0
0FFFC0
03FF00
ENDCHAR
STARTCHAR Ocircumflex
ENCODING 212
SWIDTH 968 0
DWIDTH 23 0
BBX 21 22 1 0
BITMAP
007000
005800
00C800
010400
07FF00
0FFFC0
3FFFE0
3E01F0
7800F0
700078
F00038
E00038
E00038
E00038
E00038
F00038
700078
7800F0
3E01F0
1FFFE0
0FFFC0
03FF00
ENDCHAR
STARTCHAR Otilde
ENCODING 213
SWIDTH 968 0
DWIDTH 23 0
BBX 21 22 1 0
BITMAP
00E400
013C00
000000
000000
07FF00
0FFFC0
3FFFE0
3E01F0
7800F0
700078
F00038
E00038
E00038
E00038
E00038
F00038
700078
7800F0
3E01F0
1FFFE0
0FFFC0
03FF00
ENDCHAR
STARTCHAR Odieresis
ENCODING 214
SWIDTH 968 0
DWIDTH 23 0
BBX 21 22 1 0
BITMAP
01CC00
018C00
000000
000000
07FF00
0FFFC0
3FFFE0
3E01F0
7800F0
700078
F00038
E00038
E00038
E00038
E00038
F00038
700078
7800F0
3E01F0
1FFFE0
0FFFC0
03FF00
ENDCHAR
STARTCHAR multiply
ENCODING 215
SWIDTH 690 0
DWIDTH 17 0
BBX 11 12 3 3
BITMAP
4040
E0E0
61C0
3380
1F00
0E00
1E00
3F00
7380
E1C0
C0E0
4040
ENDCHAR
STARTCHAR Oslash
ENCODING 216
SWIDTH 968 0
DWIDTH 23 0
BBX 21 20 1 -1
BITMAP
000020
07FF60
0FFFC0
3FFFE0
3E01F0
7802F0
700478
F00C38
E01838
E03038
E02038
E04038
F0C038
718078
7B00F0
3E01F0
1FFFE0
0FFFC0
1BFF00
300000
ENDCHAR
STARTCHAR Ugrave
ENCODING 217
SWIDTH 889 0
DWIDTH 21 0
BBX 19 22 1 0
BITMAP
038000
03F000
003000
000000
E000E0
E000E0
E000E0
E000E0
E000E0
E000E0
E000E0
E000E0
E000E0
E000E0
E000E0
F000E0
F000E0
7801E0
7C07C0
3FFF80
1FFF00
07FC00
ENDCHAR
STARTCHAR Uacute
ENCODING 218
SWIDTH 889 0
DWIDTH 21 0
BBX 19 22 1 0
BITMAP
003800
01F800
018000
000000
E000E0
E000E0
E000E0
E000E0
E000E0
E000E0
E000E0
E000E0
E000E0
E000E0
E000E0
F000E0
F000E0
7801E0
7C07C0
3FFF80
1FFF00
07FC00
ENDCHAR
STARTCHAR Ucircumflex
ENCODING 219
SWIDTH 889 0
DWIDTH 21 0
BBX 19 22 1 0
BITMAP
00E000
00B000
019000
020800
E000E0
E000E0
E000E0
E000E0
E000E0
E000E0
E000E0
E000E0
E000E0
E000E0
E000E0
F000E0
F000E0
7801E0
7C07C0
3FFF80
1FFF00
07FC00
ENDCHAR
STARTCHAR Udieresis
ENCODING 220
SWIDTH 889 0
DWIDTH 21 0
BBX 19 22 1 0
BITMAP
039800
031800
000000
000000
E000E0
E000E0
E000E0
E000E0
E000E0
E000E0
E000E0
E000E0
E000E0
E000E0
E000E0
F000E0
F000E0
7801E0
7C07C0
3FFF80
1FFF00
07FC00
ENDCHAR
STARTCHAR Yacute
ENCODING 221
SWIDTH 926 0
DWIDTH 22 0
BBX 22 22 0 0
BITMAP
000E00
007E00
006000
000000
F8003C
3C0078
3C00F0
1E01E0
0F03C0
078380
03C780
03CF00
01FE00
00FC00
007800
003800
003800
003800
003800
003800
003800
003800
ENDCHAR
STARTCHAR Thorn
ENCODING 222
SWIDTH 843 0
DWIDTH 20 0
BBX 18 18 2 0
BITMAP
E00000
E00000
E00000
FFFC00
FFFF00
FFFF00
E00780
E00380
E00380
E001C0
E00380
E00380
E00780
E7FF00
E7FE00
E7FC00
E00000
E00000
ENDCHAR
STARTCHAR germandbls
ENCODING 223
SWIDTH 1760 0
DWIDTH 42 0
BBX 40 18 1 0
BITMAP
1FFFC0FFFE
3FFFC1FFFE
7FFFC3FFFE
F000038000
E000078000
E000078000
F00003C000
7FFF83FFFC
3FFFC1FFFE
1FFFC0FFFF
0001E0000F
0000E00007
0000E00007
0000E00007
0001E0000F
7FFFC3FFFE
7FFFC3FFFE
7FFF03FFF8
ENDCHAR
STARTCHAR agrave
ENCODING 224
SWIDTH 989 0
DWIDTH 24 0
BBX 23 22 0 0
BITMAP
00E000
00FC00
000C00
000000
001800
003C00
007C00
007E00
00FE00
00EF00
01E780
01C380
0383C0
0781C0
0701E0
0F3FF0
0E7FF0
1C7FF8
3C0038
38003C
78001C
F0001E
ENDCHAR
STARTCHAR aacute
ENCODING 225
SWIDTH 989 0
DWIDTH 24 0
BBX 23 22 0 0
BITMAP
000700
007F00
006000
000000
001800
003C00
007C00
007E00
00FE00
00EF00
01E780
01C380
0383C0
0781C0
0701E0
0F3FF0
0E7FF0
1C7FF8
3C0038
38003C
78001C
F0001E
ENDCHAR
STARTCHAR acircumflex
ENCODING 226
SWIDTH 989 0
DWIDTH 24 0
BBX 23 22 0 0
BITMAP
003800
002C00
006600
000000
001800
003C00
007C00
007E00
00FE00
00EF00
01E780
01C380
0383C0
0781C0
0701E0
0F3FF0
0E7FF0
1C7FF8
3C0038
38003C
78001C
F0001E
ENDCHAR
STARTCHAR atilde
ENCODING 227
SWIDTH 989 0
DWIDTH 24 0
BBX 23 22 0 0
BITMAP
007200
005E00
000000
000000
001800
003C00
007C00
007E00
00FE00
00EF00
01E780
01C380
0383C0
0781C0
0701E0
0F3FF0
0E7FF0
1C7FF8
3C0038
38003C
78001C
F0001E
ENDCHAR
STARTCHAR adieresis
ENCODING 228
SWIDTH 989 0
DWIDTH 24 0
BBX 23 22 0 0
BITMAP
00E600
006600
000000
000000
001800
003C00
007C00
007E00
00FE00
00EF00
01E780
01C380
0383C0
0781C0
0701E0
0F3FF0
0E7FF0
1C7FF8
3C0038
38003C
78001C
F0001E
ENDCHAR
STARTCHAR aring
ENCODING 229
SWIDTH 989 0
DWIDTH 24 0
BBX 23 24 0 0
BITMAP
003C00
004200
004200
004200
003C00
000000
001800
003C00
007C00
007E00
00FE00
00EF00
01E780
01C380
0383C0
0781C0
0701E0
0F3FF0
0E7FF0
1C7FF8
3C0038
38003C
78001C
F0001E
ENDCHAR
STARTCHAR ae
ENCODING 230
SWIDTH 1345 0
DWIDTH 32 0
BBX 31 18 0 0
BITMAP
003FFFFE
003FFFFE
007FFFFE
00707000
00E07000
01E07000
01C07000
03C073FC
038073FC
070073FC
07007000
0E3FF000
1E7FF000
1C7FF000
3C007000
38007FFE
78007FFE
F0007FFE
ENDCHAR
STARTCHAR ccedilla
ENCODING 231
SWIDTH 829 0
DWIDTH 20 0
BBX 18 23 1 -5
BITMAP
07FFC0
0FFFC0
3FFFC0
3E0000
780000
700000
F00000
E00000
E00000
E00000
E00000
F00000
700000
780000
3E0000
1FFFC0
0FFFC0
03FFC0
000000
00E000
00C000
004000
004000
ENDCHAR
STARTCHAR egrave
ENCODING 232
SWIDTH 759 0
DWIDTH 18 0
BBX 15 22 2 0
BITMAP
1C00
1F80
0080
0000
FFFE
FFFE
FFFE
E000
E000
E000
E000
E7FC
E7FC
E7FC
E000
E000
E000
E000
E000
FFFE
FFFE
FFFE
ENDCHAR
STARTCHAR eacute
ENCODING 233
SWIDTH 759 0
DWIDTH 18 0
BBX 15 22 2 0
BITMAP
00E0
07E0
0400
0000
FFFE
FFFE
FFFE
E000
E000
E000
E000
E7FC
E7FC
E7FC
E000
E000
E000
E000
E000
FFFE
FFFE
FFFE
ENDCHAR
STARTCHAR ecircumflex
ENCODING 234
SWIDTH 759 0
DWIDTH 18 0
BBX 15 22 2 0
BITMAP
0380
0680
0CC0
0000
FFFE
FFFE
FFFE
E000
E000
E000
E000
E7FC
E7FC
E7FC
E000
E000
E000
E000
E000
FFFE
FFFE
FFFE
ENDCHAR
STARTCHAR edieresis
ENCODING 235
SWIDTH 759 0
DWIDTH 18 0
BBX 15 22 2 0
BITMAP
0CE0
0CC0
0000
0000
FFFE
FFFE
FFFE
E000
E000
E000
E000
E7FC
E7FC
E7FC
E000
E000
E000
E000
E000
FFFE
FFFE
FFFE
ENDCHAR
STARTCHAR igrave
ENCODING 236
SWIDTH 267 0
DWIDTH 6 0
BBX 7 22 -1 0
BITMAP
F0
FE
06
00
1C
1C
1C
1C
1C
1C
1C
1C
1C
1C
1C
1C
1C
1C
1C
1C
1C
1C
ENDCHAR
STARTCHAR iacute
ENCODING 237
SWIDTH 267 0
DWIDTH 6 0
BBX 6 22 1 0
BITMAP
1C
FC
C0
00
70
70
70
70
70
70
70
70
70
70
70
70
70
70
70
70
70
70
ENDCHAR
STARTCHAR icircumflex
ENCODING 238
SWIDTH 267 0
DWIDTH 6 0
BBX 7 22 0 0
BITMAP
38
68
4C
82
38
38
38
38
38
38
38
38
38
38
38
38
38
38
38
38
38
38
ENDCHAR
STARTCHAR idieresis
ENCODING 239
SWIDTH 267 0
DWIDTH 6 0
BBX 7 22 0 0
BITMAP
CE
CC
00
00
38
38
38
38
38
38
38
38
38
38
38
38
38
38
38
38
38
38
ENDCHAR
STARTCHAR eth
ENCODING 240
SWIDTH 877 0
DWIDTH 21 0
BBX 20 18 0 0
BITMAP
7FFC00
7FFF80
7FFFC0
7007E0
7001E0
7000F0
700070
FFE070
FFE070
FFE070
700070
700070
7000E0
7001E0
7007C0
7FFFC0
7FFF00
7FFE00
ENDCHAR
STARTCHAR ntilde
ENCODING 241
SWIDTH 873 0
DWIDTH 21 0
BBX 19 22 1 0
BITMAP
018800
027000
000000
000000
6000E0
F000E0
F800E0
FC00E0
FE00E0
EF00E0
E780E0
E3C0E0
E1E0E0
E0F0E0
E078E0
E03CE0
E01EE0
E00FE0
E007E0
E003E0
E001E0
E000C0
ENDCHAR
STARTCHAR ograve
ENCODING 242
SWIDTH 968 0
DWIDTH 23 0
BBX 21 22 1 0
BITMAP
01C000
01F800
001800
000000
07FF00
0FFFC0
3FFFE0
3E01F0
7800F0
700078
F00038
E00038
E00038
E00038
E00038
F00038
700078
7800F0
3E01F0
1FFFE0
0FFFC0
03FF00
ENDCHAR
STARTCHAR oacute
ENCODING 243
SWIDTH 968 0
DWIDTH 23 0
BBX 21 22 1 0
BITMAP
001C00
00FC00
00C000
000000
07FF00
0FFFC0
3FFFE0
3E01F0
7800F0
700078
F00038
E00038
E00038
E00038
E00038
F00038
700078
7800F0
3E01F0
1FFFE0
0FFFC0
03FF00
ENDCHAR
STARTCHAR ocircumflex
ENCODING 244
SWIDTH 968 0
DWIDTH 23 0
BBX 21 22 1 0
BITMAP
007000
005800
00C800
010400
07FF00
0FFFC0
3FFFE0
3E01F0
7800F0
700078
F00038
E00038
E00038
E00038
E00038
F00038
700078
7800F0
3E01F0
1FFFE0
0FFFC0
03FF00
ENDCHAR
STARTCHAR otilde
ENCODING 245
SWIDTH 968 0
DWIDTH 23 0
BBX 21 22 1 0
BITMAP
00E400
013C00
000000
000000
07FF00
0FFFC0
3FFFE0
3E01F0
7800F0
700078
F00038
E00038
E00038
E00038
E00038
F00038
700078
7800F0
3E01F0
1FFFE0
0FFFC0
03FF00
ENDCHAR
STARTCHAR odieresis
ENCODING 246
SWIDTH 968 0
DWIDTH 23 0
BBX 21 22 1 0
BITMAP
01CC00
018C00
000000
000000
07FF00
0FFFC0
3FFFE0
3E01F0
7800F0
700078
F00038
E00038
E00038
E00038
E00038
F00038
700078
7800F0
3E01F0
1FFFE0
0FFFC0
03FF00
ENDCHAR
STARTCHAR divide
ENCODING 247
SWIDTH 690 0
DWIDTH 17 0
BBX 13 16 2 1
BITMAP
0700
0700
0600
0000
0000
0000
0000
FFF8
FFF8
0000
0000
0000
0000
0700
0700
0600
ENDCHAR
STARTCHAR oslash
ENCODING 248
SWIDTH 968 0
DWIDTH 23 0
BBX 21 20 1 -1
BITMAP
000020
07FF60
0FFFC0
3FFFE0
3E01F0
7802F0
700478
F00C38
E01838
E03038
E02038
E04038
F0C038
718078
7B00F0
3E01F0
1FFFE0
0FFFC0
1BFF00
300000
ENDCHAR
STARTCHAR ugrave
ENCODING 249
SWIDTH 889 0
DWIDTH 21 0
BBX 19 22 1 0
BITMAP
038000
03F000
003000
000000
E000E0
E000E0
E000E0
E000E0
E000E0
E000E0
E000E0
E000E0
E000E0
E000E0
E000E0
F000E0
F000E0
7801E0
7C07C0
3FFF80
1FFF00
07FC00
ENDCHAR
STARTCHAR uacute
ENCODING 250
SWIDTH 889 0
DWIDTH 21 0
BBX 19 22 1 0
BITMAP
003800
01F800
018000
000000
E000E0
E000E0
E000E0
E000E0
E000E0
E000E0
E000E0
E000E0
E000E0
E000E0
E000E0
F000E0
F000E0
7801E0
7C07C0
3FFF80
1FFF00
07FC00
ENDCHAR
STARTCHAR ucircumflex
ENCODING 251
SWIDTH 889 0
DWIDTH 21 0
BBX 19 22 1 0
BITMAP
00E000
00B000
019000
020800
E000E0
E000E0
E000E0
E000E0
E000E0
E000E0
E000E0
E000E0
E000E0
E000E0
E000E0
F000E0
F000E0
7801E0
7C07C0
3FFF80
1FFF00
07FC00
ENDCHAR
STARTCHAR udieresis
ENCODING 252
SWIDTH 889 0
DWIDTH 21 0
BBX 19 22 1 0
BITMAP
039800
031800
000000
000000
E000E0
E000E0
E000E0
E000E0
E000E0
E000E0
E000E0
E000E0
E000E0
E000E0
E000E0
F000E0
F000E0
7801E0
7C07C0
3FFF80
1FFF00
07FC00
ENDCHAR
STARTCHAR yacute
ENCODING 253
SWIDTH 926 0
DWIDTH 22 0
BBX 22 22 0 0
BITMAP
000E00
007E00
006000
000000
F8003C
3C0078
3C00F0
1E01E0
0F03C0
078380
03C780
03CF00
01FE00
00FC00
007800
003800
003800
003800
003800
003800
003800
003800
ENDCHAR
STARTCHAR thorn
ENCODING 254
SWIDTH 843 0
DWIDTH 20 0
BBX 18 18 2 0
BITMAP
E00000
E00000
E00000
FFFC00
FFFF00
FFFF00
E00780
E00380
E00380
E001C0
E00380
E00380
E00780
E7FF00
E7FE00
E7FC00
E00000
E00000
ENDCHAR
STARTCHAR ydieresis
ENCODING 255
SWIDTH 926 0
DWIDTH 22 0
BBX 22 22 0 0
BITMAP
00CE00
00CC00
000000
000000
F8003C
3C0078
3C00F0
1E01E0
0F03C0
078380
03C780
03CF00
01FE00
00FC00
007800
003800
003800
003800
003800
003800
003800
003800
ENDCHAR
STARTCHAR Amacron
ENCODING 256
SWIDTH 989 0
DWIDTH 24 0
BBX 23 21 0 0
BITMAP
007E00
000000
000000
001800
003C00
007C00
007E00
00FE00
00EF00
01E780
01C380
0383C0
0781C0
0701E0
0F3FF0
0E7FF0
1C7FF8
3C0038
38003C
78001C
F0001E
ENDCHAR
STARTCHAR amacron
ENCODING 257
SWIDTH 989 0
DWIDTH 24 0
BBX 23 21 0 0
BITMAP
007E00
000000
000000
001800
003C00
007C00
007E00
00FE00
00EF00
01E780
01C380
0383C0
0781C0
0701E0
0F3FF0
0E7FF0
1C7FF8
3C0038
38003C
78001C
F0001E
ENDCHAR
STARTCHAR Abreve
ENCODING 258
SWIDTH 989 0
DWIDTH 24 0
BBX 23 23 0 0
BITMAP
004600
004600
006600
003C00
000000
001800
003C00
007C00
007E00
00FE00
00EF00
01E780
01C380
0383C0
0781C0
0701E0
0F3FF0
0E7FF0
1C7FF8
3C0038
38003C
78001C
F0001E
ENDCHAR
STARTCHAR abreve
ENCODING 259
SWIDTH 989 0
DWIDTH 24 0
BBX 23 23 0 0
BITMAP
004600
004600
006600
003C00
000000
001800
003C00
007C00
007E00
00FE00
00EF00
01E780
01C380
0383C0
0781C0
0701E0
0F3FF0
0E7FF0
1C7FF8
3C0038
38003C
78001C
F0001E
ENDCHAR
STARTCHAR Aogonek
ENCODING 260
SWIDTH 989 0
DWIDTH 24 0
BBX 23 23 0 -5
BITMAP
001800
003C00
007C00
007E00
00FE00
00EF00
01E780
01C380
0383C0
0781C0
0701E0
0F3FF0
0E7FF0
1C7FF8
3C0038
38003C
78001C
F0001E
000006
000008
000018
00001E
00001E
ENDCHAR
STARTCHAR aogonek
ENCODING 261
SWIDTH 989 0
DWIDTH 24 0
BBX 23 23 0 -5
BITMAP
001800
003C00
007C00
007E00
00FE00
00EF00
01E780
01C380
0383C0
0781C0
0701E0
0F3FF0
0E7FF0
1C7FF8
3C0038
38003C
78001C
F0001E
000006
000008
000018
00001E
00001E
ENDCHAR
STARTCHAR Cacute
ENCODING 262
SWIDTH 829 0
DWIDTH 20 0
BBX 18 22 1 0
BITMAP
001C00
00FC00
008000
000000
07FFC0
0FFFC0
3FFFC0
3E0000
780000
700000
F00000
E00000
E00000
E00000
E00000
F00000
700000
780000
3E0000
1FFFC0
0FFFC0
03FFC0
ENDCHAR
STARTCHAR cacute
ENCODING 263
SWIDTH 829 0
DWIDTH 20 0
BBX 18 22 1 0
BITMAP
001C00
00FC00
008000
000000
07FFC0
0FFFC0
3FFFC0
3E0000
780000
700000
F00000
E00000
E00000
E00000
E00000
F00000
700000
780000
3E0000
1FFFC0
0FFFC0
03FFC0
ENDCHAR
STARTCHAR Cdotaccent
ENCODING 266
SWIDTH 829 0
DWIDTH 20 0
BBX 18 22 1 0
BITMAP
007000
006000
000000
000000
07FFC0
0FFFC0
3FFFC0
3E0000
780000
700000
F00000
E00000
E00000
E00000
E00000
F00000
700000
780000
3E0000
1FFFC0
0FFFC0
03FFC0
ENDCHAR
STARTCHAR cdotaccent
ENCODING 267
SWIDTH 829 0
DWIDTH 20 0
BBX 18 22 1 0
BITMAP
007000
006000
000000
000000
07FFC0
0FFFC0
3FFFC0
3E0000
780000
700000
F00000
E00000
E00000
E00000
E00000
F00000
700000
780000
3E0000
1FFFC0
0FFFC0
03FFC0
ENDCHAR
STARTCHAR Ccaron
ENCODING 268
SWIDTH 829 0
DWIDTH 20 0
BBX 18 23 1 0
BITMAP
018800
009800
00D000
006000
000000
07FFC0
0FFFC0
3FFFC0
3E0000
780000
700000
F00000
E00000
E00000
E00000
E00000
F00000
700000
780000
3E0000
1FFFC0
0FFFC0
03FFC0
ENDCHAR
STARTCHAR ccaron
ENCODING 269
SWIDTH 829 0
DWIDTH 20 0
BBX 18 23 1 0
BITMAP
018800
009800
00D000
006000
000000
07FFC0
0FFFC0
3FFFC0
3E0000
780000
700000
F00000
E00000
E00000
E00000
E00000
F00000
700000
780000
3E0000
1FFFC0
0FFFC0
03FFC0
ENDCHAR
STARTCHAR Dcaron
ENCODING 270
SWIDTH 879 0
DWIDTH 21 0
BBX 18 23 2 0
BITMAP
0C6000
064000
02C000
038000
000000
FFF800
FFFE00
FFFF00
E01F80
E00780
E003C0
E001C0
E001C0
E001C0
E001C0
E001C0
E001C0
E00380
E00780
E01F00
FFFF00
FFFC00
FFF000
ENDCHAR
STARTCHAR dcaron
ENCODING 271
SWIDTH 879 0
DWIDTH 21 0
BBX 18 23 2 0
BITMAP
0C6000
064000
02C000
038000
000000
FFF800
FFFE00
FFFF00
E01F80
E00780
E003C0
E001C0
E001C0
E001C0
E001C0
E001C0
E001C0
E00380
E00780
E01F00
FFFF00
FFFC00
FFF000
ENDCHAR
STARTCHAR Dcroat
ENCODING 272
SWIDTH 877 0
DWIDTH 21 0
BBX 20 18 0 0
BITMAP
7FFC00
7FFF80
7FFFC0
7007E0
7001E0
7000F0
700070
FFE070
FFE070
FFE070
700070
700070
7000E0
7001E0
7007C0
7FFFC0
7FFF00
7FFE00
ENDCHAR
STARTCHAR dcroat
ENCODING 273
SWIDTH 877 0
DWIDTH 21 0
BBX 20 18 0 0
BITMAP
7FFC00
7FFF80
7FFFC0
7007E0
7001E0
7000F0
700070
FFE070
FFE070
FFE070
700070
700070
7000E0
7001E0
7007C0
7FFFC0
7FFF00
7FFE00
ENDCHAR
STARTCHAR Emacron
ENCODING 274
SWIDTH 759 0
DWIDTH 18 0
BBX 15 21 2 0
BITMAP
0FC0
0000
0000
FFFE
FFFE
FFFE
E000
E000
E000
E000
E7FC
E7FC
E7FC
E000
E000
E000
E000
E000
FFFE
FFFE
FFFE
ENDCHAR
STARTCHAR emacron
ENCODING 275
SWIDTH 759 0
DWIDTH 18 0
BBX 15 21 2 0
BITMAP
0FC0
0000
0000
FFFE
FFFE
FFFE
E000
E000
E000
E000
E7FC
E7FC
E7FC
E000
E000
E000
E000
E000
FFFE
FFFE
FFFE
ENDCHAR
STARTCHAR Ebreve
ENCODING 276
SWIDTH 759 0
DWIDTH 18 0
BBX 15 23 2 0
BITMAP
0840
0C40
0CC0
0780
0000
FFFE
FFFE
FFFE
E000
E000
E000
E000
E7FC
E7FC
E7FC
E000
E000
E000
E000
E000
FFFE
FFFE
FFFE
ENDCHAR
STARTCHAR ebreve
ENCODING 277
SWIDTH 759 0
DWIDTH 18 0
BBX 15 23 2 0
BITMAP
0840
0C40
0CC0
0780
0000
FFFE
FFFE
FFFE
E000
E000
E000
E000
E7FC
E7FC
E7FC
E000
E000
E000
E000
E000
FFFE
FFFE
FFFE
ENDCHAR
STARTCHAR Edotaccent
ENCODING 278
SWIDTH 759 0
DWIDTH 18 0
BBX 15 22 2 0
BITMAP
0300
0300
0000
0000
FFFE
FFFE
FFFE
E000
E000
E000
E000
E7FC
E7FC
E7FC
E000
E000
E000
E000
E000
FFFE
FFFE
FFFE
ENDCHAR
STARTCHAR edotaccent
ENCODING 279
SWIDTH 759 0
DWIDTH 18 0
BBX 15 22 2 0
BITMAP
0300
0300
0000
0000
FFFE
FFFE
FFFE
E000
E000
E000
E000
E7FC
E7FC
E7FC
E000
E000
E000
E000
E000
FFFE
FFFE
FFFE
ENDCHAR
STARTCHAR Eogonek
ENCODING 280
SWIDTH 759 0
DWIDTH 18 0
BBX 15 23 2 -5
BITMAP
FFFE
FFFE
FFFE
E000
E000
E000
E000
E7FC
E7FC
E7FC
E000
E000
E000
E000
E000
FFFE
FFFE
FFFE
0004
0018
0010
001E
001E
ENDCHAR
STARTCHAR eogonek
ENCODING 281
SWIDTH 759 0
DWIDTH 18 0
BBX 15 23 2 -5
BITMAP
FFFE
FFFE
FFFE
E000
E000
E000
E000
E7FC
E7FC
E7FC
E000
E000
E000
E000
E000
FFFE
FFFE
FFFE
0004
0018
0010
001E
001E
ENDCHAR
STARTCHAR Ecaron
ENCODING 282
SWIDTH 759 0
DWIDTH 18 0
BBX 15 23 2 0
BITMAP
0C40
0CC0
0680
0300
0000
FFFE
FFFE
FFFE
E000
E000
E000
E000
E7FC
E7FC
E7FC
E000
E000
E000
E000
E000
FFFE
FFFE
FFFE
ENDCHAR
STARTCHAR ecaron
ENCODING 283
SWIDTH 759 0
DWIDTH 18 0
BBX 15 23 2 0
BITMAP
0C40
0CC0
0680
0300
0000
FFFE
FFFE
FFFE
E000
E000
E000
E000
E7FC
E7FC
E7FC
E000
E000
E000
E000
E000
FFFE
FFFE
FFFE
ENDCHAR
STARTCHAR Gbreve
ENCODING 286
SWIDTH 888 0
DWIDTH 21 0
BBX 19 23 1 0
BITMAP
018C00
018C00
008800
00F000
000000
07FFC0
0FFFC0
3FFFC0
3E0000
780000
700000
F00000
E0FFE0
E0FFE0
E0FFE0
E000E0
F000E0
7000E0
7800E0
3E00E0
1FFFE0
0FFFE0
03FFE0
ENDCHAR
STARTCHAR gbreve
ENCODING 287
SWIDTH 888 0
DWIDTH 21 0
BBX 19 23 1 0
BITMAP
018C00
018C00
008800
00F000
000000
07FFC0
0FFFC0
3FFFC0
3E0000
780000
700000
F00000
E0FFE0
E0FFE0
E0FFE0
E000E0
F000E0
7000E0
7800E0
3E00E0
1FFFE0
0FFFE0
03FFE0
ENDCHAR
STARTCHAR Gdotaccent
ENCODING 288
SWIDTH 888 0
DWIDTH 21 0
BBX 19 22 1 0
BITMAP
007000
003000
000000
000000
07FFC0
0FFFC0
3FFFC0
3E0000
780000
700000
F00000
E0FFE0
E0FFE0
E0FFE0
E000E0
F000E0
7000E0
7800E0
3E00E0
1FFFE0
0FFFE0
03FFE0
ENDCHAR
STARTCHAR gdotaccent
ENCODING 289
SWIDTH 888 0
DWIDTH 21 0
BBX 19 22 1 0
BITMAP
007000
003000
000000
000000
07FFC0
0FFFC0
3FFFC0
3E0000
780000
700000
F00000
E0FFE0
E0FFE0
E0FFE0
E000E0
F000E0
7000E0
7800E0
3E00E0
1FFFE0
0FFFE0
03FFE0
ENDCHAR
STARTCHAR Gcommaaccent
ENCODING 290
SWIDTH 888 0
DWIDTH 21 0
BBX 19 23 1 -5
BITMAP
07FFC0
0FFFC0
3FFFC0
3E0000
780000
700000
F00000
E0FFE0
E0FFE0
E0FFE0
E000E0
F000E0
7000E0
7800E0
3E00E0
1FFFE0
0FFFE0
03FFE0
000000
00E000
006000
004000
004000
ENDCHAR
STARTCHAR gcommaaccent
ENCODING 291
SWIDTH 888 0
DWIDTH 21 0
BBX 19 23 1 -5
BITMAP
07FFC0
0FFFC0
3FFFC0
3E0000
780000
700000
F00000
E0FFE0
E0FFE0
E0FFE0
E000E0
F000E0
7000E0
7800E0
3E00E0
1FFFE0
0FFFE0
03FFE0
000000
00E000
006000
004000
004000
ENDCHAR
STARTCHAR Hbar
ENCODING 294
SWIDTH 838 0
DWIDTH 20 0
BBX 17 18 2 0
BITMAP
E00380
E00380
E00380
E7FF80
E00380
E00380
E00380
E7FF80
E7FF80
E7FF80
E00380
E00380
E00380
E00380
E00380
E00380
E00380
E00380
ENDCHAR
STARTCHAR hbar
ENCODING 295
SWIDTH 838 0
DWIDTH 20 0
BBX 17 18 2 0
BITMAP
E00380
E00380
E00380
E7FF80
E00380
E00380
E00380
E7FF80
E7FF80
E7FF80
E00380
E00380
E00380
E00380
E00380
E00380
E00380
E00380
ENDCHAR
STARTCHAR uni012A
ENCODING 298
SWIDTH 267 0
DWIDTH 6 0
BBX 6 21 0 0
BITMAP
FC
00
00
38
38
38
38
38
38
38
38
38
38
38
38
38
38
38
38
38
38
ENDCHAR
STARTCHAR imacron
ENCODING 299
SWIDTH 267 0
DWIDTH 6 0
BBX 6 21 0 0
BITMAP
FC
00
00
38
38
38
38
38
38
38
38
38
38
38
38
38
38
38
38
38
38
ENDCHAR
STARTCHAR Ibreve
ENCODING 300
SWIDTH 267 0
DWIDTH 6 0
BBX 7 23 0 0
BITMAP
C6
C4
CC
78
00
38
38
38
38
38
38
38
38
38
38
38
38
38
38
38
38
38
38
ENDCHAR
STARTCHAR ibreve
ENCODING 301
SWIDTH 267 0
DWIDTH 6 0
BBX 7 23 0 0
BITMAP
C6
C4
CC
78
00
38
38
38
38
38
38
38
38
38
38
38
38
38
38
38
38
38
38
ENDCHAR
STARTCHAR Iogonek
ENCODING 302
SWIDTH 267 0
DWIDTH 6 0
BBX 5 23 0 -5
BITMAP
38
38
38
38
38
38
38
38
38
38
38
38
38
38
38
38
38
38
10
60
C0
F8
78
ENDCHAR
STARTCHAR iogonek
ENCODING 303
SWIDTH 267 0
DWIDTH 6 0
BBX 5 23 0 -5
BITMAP
38
38
38
38
38
38
38
38
38
38
38
38
38
38
38
38
38
38
10
60
C0
F8
78
ENDCHAR
STARTCHAR Idotaccent
ENCODING 304
SWIDTH 267 0
DWIDTH 6 0
BBX 3 22 2 0
BITMAP
C0
C0
00
00
E0
E0
E0
E0
E0
E0
E0
E0
E0
E0
E0
E0
E0
E0
E0
E0
E0
E0
ENDCHAR
STARTCHAR dotlessi
ENCODING 305
SWIDTH 267 0
DWIDTH 6 0
BBX 3 18 2 0
BITMAP
E0
E0
E0
E0
E0
E0
E0
E0
E0
E0
E0
E0
E0
E0
E0
E0
E0
E0
ENDCHAR
STARTCHAR IJ
ENCODING 306
SWIDTH 975 0
DWIDTH 23 0
BBX 20 18 2 0
BITMAP
E00070
E00070
E00070
E00070
E00070
E00070
E00070
E00070
E00070
E00070
E00070
E00070
E00070
E000F0
E003E0
E7FFE0
E7FF80
E7FE00
ENDCHAR
STARTCHAR ij
ENCODING 307
SWIDTH 975 0
DWIDTH 23 0
BBX 20 18 2 0
BITMAP
E00070
E00070
E00070
E00070
E00070
E00070
E00070
E00070
E00070
E00070
E00070
E00070
E00070
E000F0
E003E0
E7FFE0
E7FF80
E7FE00
ENDCHAR
STARTCHAR Kcommaaccent
ENCODING 310
SWIDTH 875 0
DWIDTH 21 0
BBX 19 23 2 -5
BITMAP
E007C0
E00F00
E03E00
E07C00
E0F000
E1E000
E7C000
EF8000
FE0000
EF0000
E78000
E3C000
E1E000
E0F800
E03C00
E01E00
E00F80
E007E0
000000
01C000
008000
008000
008000
ENDCHAR
STARTCHAR kcommaaccent
ENCODING 311
SWIDTH 875 0
DWIDTH 21 0
BBX 19 23 2 -5
BITMAP
E007C0
E00F00
E03E00
E07C00
E0F000
E1E000
E7C000
EF8000
FE0000
EF0000
E78000
E3C000
E1E000
E0F800
E03C00
E01E00
E00F80
E007E0
000000
01C000
008000
008000
008000
ENDCHAR
STARTCHAR Lacute
ENCODING 313
SWIDTH 707 0
DWIDTH 17 0
BBX 15 22 1 0
BITMAP
1C00
FC00
8000
0000
7000
7000
7000
7000
7000
7000
7000
7000
7000
7000
7000
7000
7000
7000
7000
7FFE
7FFE
7FFE
ENDCHAR
STARTCHAR lacute
ENCODING 314
SWIDTH 707 0
DWIDTH 17 0
BBX 15 22 1 0
BITMAP
1C00
FC00
8000
0000
7000
7000
7000
7000
7000
7000
7000
7000
7000
7000
7000
7000
7000
7000
7000
7FFE
7FFE
7FFE
ENDCHAR
STARTCHAR Lcommaaccent
ENCODING 315
SWIDTH 707 0
DWIDTH 17 0
BBX 14 23 2 -5
BITMAP
E000
E000
E000
E000
E000
E000
E000
E000
E000
E000
E000
E000
E000
E000
E000
FFFC
FFFC
FFFC
0000
0780
0300
0200
0200
ENDCHAR
STARTCHAR lcommaaccent
ENCODING 316
SWIDTH 707 0
DWIDTH 17 0
BBX 14 23 2 -5
BITMAP
E000
E000
E000
E000
E000
E000
E000
E000
E000
E000
E000
E000
E000
E000
E000
FFFC
FFFC
FFFC
0000
0780
0300
0200
0200
ENDCHAR
STARTCHAR Lcaron
ENCODING 317
SWIDTH 707 0
DWIDTH 17 0
BBX 14 18 2 0
BITMAP
E780
E700
E700
E700
E700
E600
E000
E000
E000
E000
E000
E000
E000
E000
E000
FFFC
FFFC
FFFC
ENDCHAR
STARTCHAR lcaron
ENCODING 318
SWIDTH 707 0
DWIDTH 17 0
BBX 14 18 2 0
BITMAP
E780
E700
E700
E700
E700
E600
E000
E000
E000
E000
E000
E000
E000
E000
E000
FFFC
FFFC
FFFC
ENDCHAR
STARTCHAR Ldot
ENCODING 319
SWIDTH 707 0
DWIDTH 17 0
BBX 14 18 2 0
BITMAP
E000
E000
E000
E000
E000
E000
E000
E600
E600
E000
E000
E000
E000
E000
E000
FFFC
FFFC
FFFC
ENDCHAR
STARTCHAR ldot
ENCODING 320
SWIDTH 707 0
DWIDTH 17 0
BBX 14 18 2 0
BITMAP
E000
E000
E000
E000
E000
E000
E000
E600
E600
E000
E000
E000
E000
E000
E000
FFFC
FFFC
FFFC
ENDCHAR
STARTCHAR Lslash
ENCODING 321
SWIDTH 707 0
DWIDTH 17 0
BBX 14 18 2 0
BITMAP
E000
E000
E000
E000
E000
E080
E380
EF80
FF00
FC00
E000
E000
E000
E000
E000
FFFC
FFFC
FFFC
ENDCHAR
STARTCHAR lslash
ENCODING 322
SWIDTH 707 0
DWIDTH 17 0
BBX 14 18 2 0
BITMAP
E000
E000
E000
E000
E000
E080
E380
EF80
FF00
FC00
E000
E000
E000
E000
E000
FFFC
FFFC
FFFC
ENDCHAR
STARTCHAR Nacute
ENCODING 323
SWIDTH 873 0
DWIDTH 21 0
BBX 19 22 1 0
BITMAP
003800
01F800
018000
000000
6000E0
F000E0
F800E0
FC00E0
FE00E0
EF00E0
E780E0
E3C0E0
E1E0E0
E0F0E0
E078E0
E03CE0
E01EE0
E00FE0
E007E0
E003E0
E001E0
E000C0
ENDCHAR
STARTCHAR nacute
ENCODING 324
SWIDTH 873 0
DWIDTH 21 0
BBX 19 22 1 0
BITMAP
003800
01F800
018000
000000
6000E0
F000E0
F800E0
FC00E0
FE00E0
EF00E0
E780E0
E3C0E0
E1E0E0
E0F0E0
E078E0
E03CE0
E01EE0
E00FE0
E007E0
E003E0
E001E0
E000C0
ENDCHAR
STARTCHAR Ncommaaccent
ENCODING 325
SWIDTH 873 0
DWIDTH 21 0
BBX 19 23 1 -5
BITMAP
6000E0
F000E0
F800E0
FC00E0
FE00E0
EF00E0
E780E0
E3C0E0
E1E0E0
E0F0E0
E078E0
E03CE0
E01EE0
E00FE0
E007E0
E003E0
E001E0
E000C0
000000
00E000
004000
004000
004000
ENDCHAR
STARTCHAR ncommaaccent
ENCODING 326
SWIDTH 873 0
DWIDTH 21 0
BBX 19 23 1 -5
BITMAP
6000E0
F000E0
F800E0
FC00E0
FE00E0
EF00E0
E780E0
E3C0E0
E1E0E0
E0F0E0
E078E0
E03CE0
E01EE0
E00FE0
E007E0
E003E0
E001E0
E000C0
000000
00E000
004000
004000
004000
ENDCHAR
STARTCHAR Ncaron
ENCODING 327
SWIDTH 873 0
DWIDTH 21 0
BBX 19 23 1 0
BITMAP
031800
013000
01A000
00E000
000000
6000E0
F000E0
F800E0
FC00E0
FE00E0
EF00E0
E780E0
E3C0E0
E1E0E0
E0F0E0
E078E0
E03CE0
E01EE0
E00FE0
E007E0
E003E0
E001E0
E000C0
ENDCHAR
STARTCHAR ncaron
ENCODING 328
SWIDTH 873 0
DWIDTH 21 0
BBX 19 23 1 0
BITMAP
031800
013000
01A000
00E000
000000
6000E0
F000E0
F800E0
FC00E0
FE00E0
EF00E0
E780E0
E3C0E0
E1E0E0
E0F0E0
E078E0
E03CE0
E01EE0
E00FE0
E007E0
E003E0
E001E0
E000C0
ENDCHAR
STARTCHAR Eng
ENCODING 330
SWIDTH 873 0
DWIDTH 21 0
BBX 19 23 1 -5
BITMAP
6000E0
F000E0
F800E0
FC00E0
FE00E0
EF00E0
E780E0
E3C0E0
E1E0E0
E0F0E0
E078E0
E03CE0
E01EE0
E00FE0
E007E0
E003E0
E001E0
E001C0
0003C0
000FC0
01FF80
01FF00
01FC00
ENDCHAR
STARTCHAR eng
ENCODING 331
SWIDTH 873 0
DWIDTH 21 0
BBX 19 23 1 -5
BITMAP
6000E0
F000E0
F800E0
FC00E0
FE00E0
EF00E0
E780E0
E3C0E0
E1E0E0
E0F0E0
E078E0
E03CE0
E01EE0
E00FE0
E007E0
E003E0
E001E0
E001C0
0003C0
000FC0
01FF80
01FF00
01FC00
ENDCHAR
STARTCHAR Omacron
ENCODING 332
SWIDTH 968 0
DWIDTH 23 0
BBX 21 21 1 0
BITMAP
00FC00
000000
000000
07FF00
0FFFC0
3FFFE0
3E01F0
7800F0
700078
F00038
E00038
E00038
E00038
E00038
F00038
700078
7800F0
3E01F0
1FFFE0
0FFFC0
03FF00
ENDCHAR
STARTCHAR omacron
ENCODING 333
SWIDTH 968 0
DWIDTH 23 0
BBX 21 21 1 0
BITMAP
00FC00
000000
000000
07FF00
0FFFC0
3FFFE0
3E01F0
7800F0
700078
F00038
E00038
E00038
E00038
E00038
F00038
700078
7800F0
3E01F0
1FFFE0
0FFFC0
03FF00
ENDCHAR
STARTCHAR Obreve
ENCODING 334
SWIDTH 968 0
DWIDTH 23 0
BBX 21 23 1 0
BITMAP
018C00
018C00
008800
007800
000000
07FF00
0FFFC0
3FFFE0
3E01F0
7800F0
700078
F00038
E00038
E00038
E00038
E00038
F00038
700078
7800F0
3E01F0
1FFFE0
0FFFC0
03FF00
ENDCHAR
STARTCHAR obreve
ENCODING 335
SWIDTH 968 0
DWIDTH 23 0
BBX 21 23 1 0
BITMAP
018C00
018C00
008800
007800
000000
07FF00
0FFFC0
3FFFE0
3E01F0
7800F0
700078
F00038
E00038
E00038
E00038
E00038
F00038
700078
7800F0
3E01F0
1FFFE0
0FFFC0
03FF00
ENDCHAR
STARTCHAR Ohungarumlaut
ENCODING 336
SWIDTH 968 0
DWIDTH 23 0
BBX 21 22 1 0
BITMAP
006600
00CC00
00C800
000000
07FF00
0FFFC0
3FFFE0
3E01F0
7800F0
700078
F00038
E00038
E00038
E00038
E00038
F00038
700078
7800F0
3E01F0
1FFFE0
0FFFC0
03FF00
ENDCHAR
STARTCHAR ohungarumlaut
ENCODING 337
SWIDTH 968 0
DWIDTH 23 0
BBX 21 22 1 0
BITMAP
006600
00CC00
00C800
000000
07FF00
0FFFC0
3FFFE0
3E01F0
7800F0
700078
F00038
E00038
E00038
E00038
E00038
F00038
700078
7800F0
3E01F0
1FFFE0
0FFFC0
03FF00
ENDCHAR
STARTCHAR OE
ENCODING 338
SWIDTH 1304 0
DWIDTH 31 0
BBX 29 18 1 0
BITMAP
07FFFFF8
0FFFFFF8
3FFFFFF8
3E038000
78038000
70038000
F0038000
E0038FF8
E0038FF8
E0038FF8
E0038000
F0038000
70038000
78038000
3E038000
1FFFFFF8
0FFFFFF8
03FFFFF8
ENDCHAR
STARTCHAR oe
ENCODING 339
SWIDTH 1304 0
DWIDTH 31 0
BBX 29 18 1 0
BITMAP
07FFFFF8
0FFFFFF8
3FFFFFF8
3E038000
78038000
70038000
F0038000
E0038FF8
E0038FF8
E0038FF8
E0038000
F0038000
70038000
78038000
3E038000
1FFFFFF8
0FFFFFF8
03FFFFF8
ENDCHAR
STARTCHAR Racute
ENCODING 340
SWIDTH 921 0
DWIDTH 22 0
BBX 20 22 2 0
BITMAP
007000
03F000
020000
000000
FFFE00
FFFF00
FFFF80
E003C0
E001C0
E001C0
E001C0
E001C0
E001C0
E003C0
E7FF80
E7FF80
E7FE00
E00F00
E00780
E007C0
E003E0
E001F0
ENDCHAR
STARTCHAR racute
ENCODING 341
SWIDTH 921 0
DWIDTH 22 0
BBX 20 22 2 0
BITMAP
007000
03F000
020000
000000
FFFE00
FFFF00
FFFF80
E003C0
E001C0
E001C0
E001C0
E001C0
E001C0
E003C0
E7FF80
E7FF80
E7FE00
E00F00
E00780
E007C0
E003E0
E001F0
ENDCHAR
STARTCHAR Rcommaaccent
ENCODING 342
SWIDTH 921 0
DWIDTH 22 0
BBX 20 23 2 -5
BITMAP
FFFE00
FFFF00
FFFF80
E003C0
E001C0
E001C0
E001C0
E001C0
E001C0
E003C0
E7FF80
E7FF80
E7FE00
E00F00
E00780
E007C0
E003E0
E001F0
000000
01E000
00C000
00C000
004000
ENDCHAR
STARTCHAR rcommaaccent
ENCODING 343
SWIDTH 921 0
DWIDTH 22 0
BBX 20 23 2 -5
BITMAP
FFFE00
FFFF00
FFFF80
E003C0
E001C0
E001C0
E001C0
E001C0
E001C0
E003C0
E7FF80
E7FF80
E7FE00
E00F00
E00780
E007C0
E003E0
E001F0
000000
01E000
00C000
00C000
004000
ENDCHAR
STARTCHAR Rcaron
ENCODING 344
SWIDTH 921 0
DWIDTH 22 0
BBX 20 23 2 0
BITMAP
062000
066000
03C000
018000
000000
FFFE00
FFFF00
FFFF80
E003C0
E001C0
E001C0
E001C0
E001C0
E001C0
E003C0
E7FF80
E7FF80
E7FE00
E00F00
E00780
E007C0
E003E0
E001F0
ENDCHAR
STARTCHAR rcaron
ENCODING 345
SWIDTH 921 0
DWIDTH 22 0
BBX 20 23 2 0
BITMAP
062000
066000
03C000
018000
000000
FFFE00
FFFF00
FFFF80
E003C0
E001C0
E001C0
E001C0
E001C0
E001C0
E003C0
E7FF80
E7FF80
E7FE00
E00F00
E00780
E007C0
E003E0
E001F0
ENDCHAR
STARTCHAR Sacute
ENCODING 346
SWIDTH 880 0
DWIDTH 21 0
BBX 19 22 1 0
BITMAP
003800
01F800
018000
000000
1FFFC0
3FFFC0
7FFFC0
F00000
E00000
E00000
F00000
7FFF80
3FFFC0
1FFFC0
0001E0
0000E0
0000E0
0000E0
0001E0
7FFFC0
7FFFC0
7FFF00
ENDCHAR
STARTCHAR sacute
ENCODING 347
SWIDTH 880 0
DWIDTH 21 0
BBX 19 22 1 0
BITMAP
003800
01F800
018000
000000
1FFFC0
3FFFC0
7FFFC0
F00000
E00000
E00000
F00000
7FFF80
3FFFC0
1FFFC0
0001E0
0000E0
0000E0
0000E0
0001E0
7FFFC0
7FFFC0
7FFF00
ENDCHAR
STARTCHAR Scedilla
ENCODING 350
SWIDTH 880 0
DWIDTH 21 0
BBX 19 23 1 -5
BITMAP
1FFFC0
3FFFC0
7FFFC0
F00000
E00000
E00000
F00000
7FFF80
3FFFC0
1FFFC0
0001E0
0000E0
0000E0
0000E0
0001E0
7FFFC0
7FFFC0
7FFF00
000000
00E000
006000
004000
004000
ENDCHAR
STARTCHAR scedilla
ENCODING 351
SWIDTH 880 0
DWIDTH 21 0
BBX 19 23 1 -5
BITMAP
1FFFC0
3FFFC0
7FFFC0
F00000
E00000
E00000
F00000
7FFF80
3FFFC0
1FFFC0
0001E0
0000E0
0000E0
0000E0
0001E0
7FFFC0
7FFFC0
7FFF00
000000
00E000
006000
004000
004000
ENDCHAR
STARTCHAR Scaron
ENCODING 352
SWIDTH 880 0
DWIDTH 21 0
BBX 19 23 1 0
BITMAP
031800
019000
00B000
00E000
000000
1FFFC0
3FFFC0
7FFFC0
F00000
E00000
E00000
F00000
7FFF80
3FFFC0
1FFFC0
0001E0
0000E0
0000E0
0000E0
0001E0
7FFFC0
7FFFC0
7FFF00
ENDCHAR
STARTCHAR scaron
ENCODING 353
SWIDTH 880 0
DWIDTH 21 0
BBX 19 23 1 0
BITMAP
031800
019000
00B000
00E000
000000
1FFFC0
3FFFC0
7FFFC0
F00000
E00000
E00000
F00000
7FFF80
3FFFC0
1FFFC0
0001E0
0000E0
0000E0
0000E0
0001E0
7FFFC0
7FFFC0
7FFF00
ENDCHAR
STARTCHAR Tcommaaccent
ENCODING 354
SWIDTH 720 0
DWIDTH 17 0
BBX 17 23 0 -5
BITMAP
FFFF80
FFFF80
FFFF80
01C000
01C000
01C000
01C000
01C000
01C000
01C000
01C000
01C000
01C000
01C000
01C000
01C000
01C000
01C000
000000
01C000
00C000
008000
008000
ENDCHAR
STARTCHAR tcommaaccent
ENCODING 355
SWIDTH 720 0
DWIDTH 17 0
BBX 17 23 0 -5
BITMAP
FFFF80
FFFF80
FFFF80
01C000
01C000
01C000
01C000
01C000
01C000
01C000
01C000
01C000
01C000
01C000
01C000
01C000
01C000
01C000
000000
01C000
00C000
008000
008000
ENDCHAR
STARTCHAR Tcaron
ENCODING 356
SWIDTH 720 0
DWIDTH 17 0
BBX 17 23 0 0
BITMAP
063000
032000
016000
01C000
000000
FFFF80
FFFF80
FFFF80
01C000
01C000
01C000
01C000
01C000
01C000
01C000
01C000
01C000
01C000
01C000
01C000
01C000
01C000
01C000
ENDCHAR
STARTCHAR tcaron
ENCODING 357
SWIDTH 720 0
DWIDTH 17 0
BBX 17 23 0 0
BITMAP
063000
032000
016000
01C000
000000
FFFF80
FFFF80
FFFF80
01C000
01C000
01C000
01C000
01C000
01C000
01C000
01C000
01C000
01C000
01C000
01C000
01C000
01C000
01C000
ENDCHAR
STARTCHAR Tbar
ENCODING 358
SWIDTH 720 0
DWIDTH 17 0
BBX 17 18 0 0
BITMAP
FFFF80
FFFF80
FFFF80
01C000
01C000
01C000
01C000
01C000
01C000
01C000
0FF800
0FF800
01C000
01C000
01C000
01C000
01C000
01C000
ENDCHAR
STARTCHAR tbar
ENCODING 359
SWIDTH 720 0
DWIDTH 17 0
BBX 17 18 0 0
BITMAP
FFFF80
FFFF80
FFFF80
01C000
01C000
01C000
01C000
01C000
01C000
01C000
0FF800
0FF800
01C000
01C000
01C000
01C000
01C000
01C000
ENDCHAR
STARTCHAR Utilde
ENCODING 360
SWIDTH 889 0
DWIDTH 21 0
BBX 19 22 1 0
BITMAP
01C800
027800
000000
000000
E000E0
E000E0
E000E0
E000E0
E000E0
E000E0
E000E0
E000E0
E000E0
E000E0
E000E0
F000E0
F000E0
7801E0
7C07C0
3FFF80
1FFF00
07FC00
ENDCHAR
STARTCHAR utilde
ENCODING 361
SWIDTH 889 0
DWIDTH 21 0
BBX 19 22 1 0
BITMAP
01C800
027800
000000
000000
E000E0
E000E0
E000E0
E000E0
E000E0
E000E0
E000E0
E000E0
E000E0
E000E0
E000E0
F000E0
F000E0
7801E0
7C07C0
3FFF80
1FFF00
07FC00
ENDCHAR
STARTCHAR Umacron
ENCODING 362
SWIDTH 889 0
DWIDTH 21 0
BBX 19 21 1 0
BITMAP
01F800
000000
000000
E000E0
E000E0
E000E0
E000E0
E000E0
E000E0
E000E0
E000E0
E000E0
E000E0
E000E0
F000E0
F000E0
7801E0
7C07C0
3FFF80
1FFF00
07FC00
ENDCHAR
STARTCHAR umacron
ENCODING 363
SWIDTH 889 0
DWIDTH 21 0
BBX 19 21 1 0
BITMAP
01F800
000000
000000
E000E0
E000E0
E000E0
E000E0
E000E0
E000E0
E000E0
E000E0
E000E0
E000E0
E000E0
F000E0
F000E0
7801E0
7C07C0
3FFF80
1FFF00
07FC00
ENDCHAR
STARTCHAR Ubreve
ENCODING 364
SWIDTH 889 0
DWIDTH 21 0
BBX 19 23 1 0
BITMAP
031800
031800
019800
00F000
000000
E000E0
E000E0
E000E0
E000E0
E000E0
E000E0
E000E0
E000E0
E000E0
E000E0
E000E0
F000E0
F000E0
7801E0
7C07C0
3FFF80
1FFF00
07FC00
ENDCHAR
STARTCHAR ubreve
ENCODING 365
SWIDTH 889 0
DWIDTH 21 0
BBX 19 23 1 0
BITMAP
031800
031800
019800
00F000
000000
E000E0
E000E0
E000E0
E000E0
E000E0
E000E0
E000E0
E000E0
E000E0
E000E0
E000E0
F000E0
F000E0
7801E0
7C07C0
3FFF80
1FFF00
07FC00
ENDCHAR
STARTCHAR Uring
ENCODING 366
SWIDTH 889 0
DWIDTH 21 0
BBX 19 24 1 0
BITMAP
01F000
011800
010800
011800
01F000
000000
E000E0
E000E0
E000E0
E000E0
E000E0
E000E0
E000E0
E000E0
E000E0
E000E0
E000E0
F000E0
F000E0
7801E0
7C07C0
3FFF80
1FFF00
07FC00
ENDCHAR
STARTCHAR uring
ENCODING 367
SWIDTH 889 0
DWIDTH 21 0
BBX 19 24 1 0
BITMAP
01F000
011800
010800
011800
01F000
000000
E000E0
E000E0
E000E0
E000E0
E000E0
E000E0
E000E0
E000E0
E000E0
E000E0
E000E0
F000E0
F000E0
7801E0
7C07C0
3FFF80
1FFF00
07FC00
ENDCHAR
STARTCHAR Uhungarumlaut
ENCODING 368
SWIDTH 889 0
DWIDTH 21 0
BBX 19 22 1 0
BITMAP
00CC00
009800
019000
000000
E000E0
E000E0
E000E0
E000E0
E000E0
E000E0
E000E0
E000E0
E000E0
E000E0
E000E0
F000E0
F000E0
7801E0
7C07C0
3FFF80
1FFF00
07FC00
ENDCHAR
STARTCHAR uhungarumlaut
ENCODING 369
SWIDTH 889 0
DWIDTH 21 0
BBX 19 22 1 0
BITMAP
00CC00
009800
019000
000000
E000E0
E000E0
E000E0
E000E0
E000E0
E000E0
E000E0
E000E0
E000E0
E000E0
E000E0
F000E0
F000E0
7801E0
7C07C0
3FFF80
1FFF00
07FC00
ENDCHAR
STARTCHAR Uogonek
ENCODING 370
SWIDTH 889 0
DWIDTH 21 0
BBX 19 23 1 -5
BITMAP
E000E0
E000E0
E000E0
E000E0
E000E0
E000E0
E000E0
E000E0
E000E0
E000E0
E000E0
F000E0
F000E0
7801E0
7C07C0
3FFFC0
1FFF80
07FE00
006000
00C000
018000
01F000
00F000
ENDCHAR
STARTCHAR uogonek
ENCODING 371
SWIDTH 889 0
DWIDTH 21 0
BBX 19 23 1 -5
BITMAP
E000E0
E000E0
E000E0
E000E0
E000E0
E000E0
E000E0
E000E0
E000E0
E000E0
E000E0
F000E0
F000E0
7801E0
7C07C0
3FFFC0
1FFF80
07FE00
006000
00C000
018000
01F000
00F000
ENDCHAR
STARTCHAR Wcircumflex
ENCODING 372
SWIDTH 1268 0
DWIDTH 30 0
BBX 30 22 0 0
BITMAP
00038000
00068000
0004C000
00080000
F078003C
783C0038
383C0078
3C1E0070
1C1E00F0
1E0F00E0
0E0F01E0
0F0781C0
070383C0
0787C380
0387C780
03CFC700
01CEEE00
00FCEE00
00FC7C00
00787C00
00783800
00303800
ENDCHAR
STARTCHAR wcircumflex
ENCODING 373
SWIDTH 1268 0
DWIDTH 30 0
BBX 30 22 0 0
BITMAP
00038000
00068000
0004C000
00080000
F078003C
783C0038
383C0078
3C1E0070
1C1E00F0
1E0F00E0
0E0F01E0
0F0781C0
070383C0
0787C380
0387C780
03CFC700
01CEEE00
00FCEE00
00FC7C00
00787C00
00783800
00303800
ENDCHAR
STARTCHAR Ycircumflex
ENCODING 374
SWIDTH 926 0
DWIDTH 22 0
BBX 22 22 0 0
BITMAP
003800
006800
00CC00
000000
F8003C
3C0078
3C00F0
1E01E0
0F03C0
078380
03C780
03CF00
01FE00
00FC00
007800
003800
003800
003800
003800
003800
003800
003800
ENDCHAR
STARTCHAR ycircumflex
ENCODING 375
SWIDTH 926 0
DWIDTH 22 0
BBX 22 22 0 0
BITMAP
003800
006800
00CC00
000000
F8003C
3C0078
3C00F0
1E01E0
0F03C0
078380
03C780
03CF00
01FE00
00FC00
007800
003800
003800
003800
003800
003800
003800
003800
ENDCHAR
STARTCHAR Ydieresis
ENCODING 376
SWIDTH 926 0
DWIDTH 22 0
BBX 22 22 0 0
BITMAP
00CE00
00CC00
000000
000000
F8003C
3C0078
3C00F0
1E01E0
0F03C0
078380
03C780
03CF00
01FE00
00FC00
007800
003800
003800
003800
003800
003800
003800
003800
ENDCHAR
STARTCHAR Zacute
ENCODING 377
SWIDTH 802 0
DWIDTH 19 0
BBX 17 22 1 0
BITMAP
007000
03F000
030000
000000
FFFF80
FFFF80
FFFF80
000F00
001E00
003C00
007800
00F000
01E000
03C000
078000
0F0000
1E0000
3C0000
780000
FFFF80
FFFF80
FFFF80
ENDCHAR
STARTCHAR zacute
ENCODING 378
SWIDTH 802 0
DWIDTH 19 0
BBX 17 22 1 0
BITMAP
007000
03F000
030000
000000
FFFF80
FFFF80
FFFF80
000F00
001E00
003C00
007800
00F000
01E000
03C000
078000
0F0000
1E0000
3C0000
780000
FFFF80
FFFF80
FFFF80
ENDCHAR
STARTCHAR Zdotaccent
ENCODING 379
SWIDTH 802 0
DWIDTH 19 0
BBX 17 22 1 0
BITMAP
01C000
00C000
000000
000000
FFFF80
FFFF80
FFFF80
000F00
001E00
003C00
007800
00F000
01E000
03C000
078000
0F0000
1E0000
3C0000
780000
FFFF80
FFFF80
FFFF80
ENDCHAR
STARTCHAR zdotaccent
ENCODING 380
SWIDTH 802 0
DWIDTH 19 0
BBX 17 22 1 0
BITMAP
01C000
00C000
000000
000000
FFFF80
FFFF80
FFFF80
000F00
001E00
003C00
007800
00F000
01E000
03C000
078000
0F0000
1E0000
3C0000
780000
FFFF80
FFFF80
FFFF80
ENDCHAR
STARTCHAR Zcaron
ENCODING 381
SWIDTH 802 0
DWIDTH 19 0
BBX 17 23 1 0
BITMAP
063000
026000
034000
01C000
000000
FFFF80
FFFF80
FFFF80
000F00
001E00
003C00
007800
00F000
01E000
03C000
078000
0F0000
1E0000
3C0000
780000
FFFF80
FFFF80
FFFF80
ENDCHAR
STARTCHAR zcaron
ENCODING 382
SWIDTH 802 0
DWIDTH 19 0
BBX 17 23 1 0
BITMAP
063000
026000
034000
01C000
000000
FFFF80
FFFF80
FFFF80
000F00
001E00
003C00
007800
00F000
01E000
03C000
078000
0F0000
1E0000
3C0000
780000
FFFF80
FFFF80
FFFF80
ENDCHAR
STARTCHAR Scommaaccent
ENCODING 536
SWIDTH 880 0
DWIDTH 21 0
BBX 19 23 1 -5
BITMAP
1FFFC0
3FFFC0
7FFFC0
F00000
E00000
E00000
F00000
7FFF80
3FFFC0
1FFFC0
0001E0
0000E0
0000E0
0000E0
0001E0
7FFFC0
7FFFC0
7FFF00
000000
00E000
006000
004000
004000
ENDCHAR
STARTCHAR scommaaccent
ENCODING 537
SWIDTH 880 0
DWIDTH 21 0
BBX 19 23 1 -5
BITMAP
1FFFC0
3FFFC0
7FFFC0
F00000
E00000
E00000
F00000
7FFF80
3FFFC0
1FFFC0
0001E0
0000E0
0000E0
0000E0
0001E0
7FFFC0
7FFFC0
7FFF00
000000
00E000
006000
004000
004000
ENDCHAR
STARTCHAR uni021A
ENCODING 538
SWIDTH 720 0
DWIDTH 17 0
BBX 17 23 0 -5
BITMAP
FFFF80
FFFF80
FFFF80
01C000
01C000
01C000
01C000
01C000
01C000
01C000
01C000
01C000
01C000
01C000
01C000
01C000
01C000
01C000
000000
01C000
00C000
008000
008000
ENDCHAR
STARTCHAR uni021B
ENCODING 539
SWIDTH 720 0
DWIDTH 17 0
BBX 17 23 0 -5
BITMAP
FFFF80
FFFF80
FFFF80
01C000
01C000
01C000
01C000
01C000
01C000
01C000
01C000
01C000
01C000
01C000
01C000
01C000
01C000
01C000
000000
01C000
00C000
008000
008000
ENDCHAR
STARTCHAR circumflex
ENCODING 710
SWIDTH 379 0
DWIDTH 9 0
BBX 7 3 1 19
BITMAP
38
2C
E6
ENDCHAR
STARTCHAR caron
ENCODING 711
SWIDTH 379 0
DWIDTH 9 0
BBX 7 4 1 19
BITMAP
C6
64
2C
38
ENDCHAR
STARTCHAR breve
ENCODING 728
SWIDTH 382 0
DWIDTH 9 0
BBX 7 4 1 19
BITMAP
C6
C6
44
3C
ENDCHAR
STARTCHAR dotaccent
ENCODING 729
SWIDTH 208 0
DWIDTH 5 0
BBX 3 2 1 20
BITMAP
E0
E0
ENDCHAR
STARTCHAR ring
ENCODING 730
SWIDTH 362 0
DWIDTH 9 0
BBX 6 5 1 19
BITMAP
7C
C4
84
C4
78
ENDCHAR
STARTCHAR ogonek
ENCODING 731
SWIDTH 234 0
DWIDTH 6 0
BBX 5 5 0 -5
BITMAP
18
60
40
F8
78
ENDCHAR
STARTCHAR tilde
ENCODING 732
SWIDTH 362 0
DWIDTH 9 0
BBX 6 2 1 20
BITMAP
64
9C
ENDCHAR
STARTCHAR hungarumlaut
ENCODING 733
SWIDTH 399 0
DWIDTH 10 0
BBX 7 3 1 19
BITMAP
66
44
CC
ENDCHAR
STARTCHAR commaaccent
ENCODING 806
SWIDTH 219 0
DWIDTH 5 0
BBX 3 4 1 -5
BITMAP
E0
60
40
40
ENDCHAR
STARTCHAR Wgrave
ENCODING 7808
SWIDTH 1268 0
DWIDTH 30 0
BBX 30 22 0 0
BITMAP
001C0000
001FC000
0000C000
00000000
F078003C
783C0038
383C0078
3C1E0070
1C1E00F0
1E0F00E0
0E0F01E0
0F0781C0
070383C0
0787C380
0387C780
03CFC700
01CEEE00
00FCEE00
00FC7C00
00787C00
00783800
00303800
ENDCHAR
STARTCHAR wgrave
ENCODING 7809
SWIDTH 1268 0
DWIDTH 30 0
BBX 30 22 0 0
BITMAP
001C0000
001FC000
0000C000
00000000
F078003C
783C0038
383C0078
3C1E0070
1C1E00F0
1E0F00E0
0E0F01E0
0F0781C0
070383C0
0787C380
0387C780
03CFC700
01CEEE00
00FCEE00
00FC7C00
00787C00
00783800
00303800
ENDCHAR
STARTCHAR Wacute
ENCODING 7810
SWIDTH 1268 0
DWIDTH 30 0
BBX 30 22 0 0
BITMAP
0000E000
0007E000
00060000
00000000
F078003C
783C0038
383C0078
3C1E0070
1C1E00F0
1E0F00E0
0E0F01E0
0F0781C0
070383C0
0787C380
0387C780
03CFC700
01CEEE00
00FCEE00
00FC7C00
00787C00
00783800
00303800
ENDCHAR
STARTCHAR wacute
ENCODING 7811
SWIDTH 1268 0
DWIDTH 30 0
BBX 30 22 0 0
BITMAP
0000E000
0007E000
00060000
00000000
F078003C
783C0038
383C0078
3C1E0070
1C1E00F0
1E0F00E0
0E0F01E0
0F0781C0
070383C0
0787C380
0387C780
03CFC700
01CEEE00
00FCEE00
00FC7C00
00787C00
00783800
00303800
ENDCHAR
STARTCHAR Wdieresis
ENCODING 7812
SWIDTH 1268 0
DWIDTH 30 0
BBX 30 22 0 0
BITMAP
000CE000
000CC000
00000000
00000000
F078003C
783C0038
383C0078
3C1E0070
1C1E00F0
1E0F00E0
0E0F01E0
0F0781C0
070383C0
0787C380
0387C780
03CFC700
01CEEE00
00FCEE00
00FC7C00
00787C00
00783800
00303800
ENDCHAR
STARTCHAR wdieresis
ENCODING 7813
SWIDTH 1268 0
DWIDTH 30 0
BBX 30 22 0 0
BITMAP
000CE000
000CC000
00000000
00000000
F078003C
783C0038
383C0078
3C1E0070
1C1E00F0
1E0F00E0
0E0F01E0
0F0781C0
070383C0
0787C380
0387C780
03CFC700
01CEEE00
00FCEE00
00FC7C00
00787C00
00783800
00303800
ENDCHAR
STARTCHAR Ygrave
ENCODING 7922
SWIDTH 926 0
DWIDTH 22 0
BBX 22 22 0 0
BITMAP
01C000
01FC00
000C00
000000
F8003C
3C0078
3C00F0
1E01E0
0F03C0
078380
03C780
03CF00
01FE00
00FC00
007800
003800
003800
003800
003800
003800
003800
003800
ENDCHAR
STARTCHAR ygrave
ENCODING 7923
SWIDTH 926 0
DWIDTH 22 0
BBX 22 22 0 0
BITMAP
01C000
01FC00
000C00
000000
F8003C
3C0078
3C00F0
1E01E0
0F03C0
078380
03C780
03CF00
01FE00
00FC00
007800
003800
003800
003800
003800
003800
003800
003800
ENDCHAR
STARTCHAR endash
ENCODING 8211
SWIDTH 590 0
DWIDTH 14 0
BBX 13 2 1 8
BITMAP
FFF8
FFF8
ENDCHAR
STARTCHAR emdash
ENCODING 8212
SWIDTH 866 0
DWIDTH 21 0
BBX 19 2 1 8
BITMAP
FFFFE0
FFFFE0
ENDCHAR
STARTCHAR quoteleft
ENCODING 8216
SWIDTH 259 0
DWIDTH 6 0
BBX 3 6 2 12
BITMAP
E0
E0
E0
E0
E0
60
ENDCHAR
STARTCHAR quoteright
ENCODING 8217
SWIDTH 259 0
DWIDTH 6 0
BBX 3 6 2 12
BITMAP
E0
C0
C0
C0
C0
C0
ENDCHAR
STARTCHAR quotesinglbase
ENCODING 8218
SWIDTH 259 0
DWIDTH 6 0
BBX 3 6 2 -3
BITMAP
E0
C0
C0
C0
C0
C0
ENDCHAR
STARTCHAR quotedblleft
ENCODING 8220
SWIDTH 462 0
DWIDTH 11 0
BBX 8 6 2 12
BITMAP
E7
E7
E7
E7
E3
63
ENDCHAR
STARTCHAR quotedblright
ENCODING 8221
SWIDTH 462 0
DWIDTH 11 0
BBX 8 6 2 12
BITMAP
E7
C7
C6
C6
C6
C6
ENDCHAR
STARTCHAR quotedblbase
ENCODING 8222
SWIDTH 462 0
DWIDTH 11 0
BBX 8 6 2 -3
BITMAP
E7
C7
C6
C6
C6
C6
ENDCHAR
STARTCHAR dagger
ENCODING 8224
SWIDTH 466 0
DWIDTH 11 0
BBX 8 18 2 0
BITMAP
10
10
10
10
FF
10
10
10
10
10
10
10
10
10
10
10
10
10
ENDCHAR
STARTCHAR daggerdbl
ENCODING 8225
SWIDTH 466 0
DWIDTH 11 0
BBX 8 18 2 0
BITMAP
10
10
10
10
FF
10
10
10
10
10
10
10
10
FF
10
10
10
10
ENDCHAR
STARTCHAR bullet
ENCODING 8226
SWIDTH 413 0
DWIDTH 10 0
BBX 6 7 2 6
BITMAP
78
FC
FC
FC
FC
FC
78
ENDCHAR
STARTCHAR ellipsis
ENCODING 8230
SWIDTH 1310 0
DWIDTH 31 0
BBX 28 3 2 0
BITMAP
C00E0070
E00E0070
C0060070
ENDCHAR
STARTCHAR perthousand
ENCODING 8240
SWIDTH 1314 0
DWIDTH 32 0
BBX 30 21 1 -2
BITMAP
0000C000
3E018000
7F038000
C1830000
C1860000
C18C0000
C19C0000
C1980000
7F300000
3E600000
00E781E0
00DFC3F0
01986618
03306408
07302C0C
06306408
0C186618
181FC3F0
380781E0
30000000
60000000
ENDCHAR
STARTCHAR guilsinglleft
ENCODING 8249
SWIDTH 367 0
DWIDTH 9 0
BBX 7 9 1 5
BITMAP
02
06
1C
70
C0
E0
30
0C
06
ENDCHAR
STARTCHAR guilsinglright
ENCODING 8250
SWIDTH 368 0
DWIDTH 9 0
BBX 7 9 1 5
BITMAP
80
C0
70
18
06
0C
38
60
C0
ENDCHAR
STARTCHAR fraction
ENCODING 8260
SWIDTH 185 0
DWIDTH 4 0
BBX 18 21 -7 -2
BITMAP
0000C0
000180
000300
000700
000600
000C00
001800
003800
003000
006000
00C000
01C000
018000
030000
060000
0E0000
0C0000
180000
300000
700000
E00000
ENDCHAR
STARTCHAR zerosuperior
ENCODING 8304
SWIDTH 449 0
DWIDTH 11 0
BBX 9 9 1 9
BITMAP
3C00
7F00
C300
C180
8180
C180
C300
7F00
3C00
ENDCHAR
STARTCHAR foursuperior
ENCODING 8308
SWIDTH 452 0
DWIDTH 11 0
BBX 9 9 1 9
BITMAP
8300
8300
8300
8300
C300
FF80
7F80
0300
0300
ENDCHAR
STARTCHAR fivesuperior
ENCODING 8309
SWIDTH 472 0
DWIDTH 11 0
BBX 9 9 1 9
BITMAP
FF80
FF80
C000
C000
FF00
0080
0080
FF80
FF00
ENDCHAR
STARTCHAR sixsuperior
ENCODING 8310
SWIDTH 466 0
DWIDTH 11 0
BBX 9 9 1 9
BITMAP
3F80
7F80
C000
C000
FF00
8180
C080
7F80
3F00
ENDCHAR
STARTCHAR sevensuperior
ENCODING 8311
SWIDTH 408 0
DWIDTH 10 0
BBX 8 9 1 9
BITMAP
FF
FF
06
04
08
18
30
60
C0
ENDCHAR
STARTCHAR eightsuperior
ENCODING 8312
SWIDTH 479 0
DWIDTH 12 0
BBX 10 9 1 9
BITMAP
7F00
FF80
C080
C080
7F00
C080
C0C0
FF80
7F00
ENDCHAR
STARTCHAR ninesuperior
ENCODING 8313
SWIDTH 460 0
DWIDTH 11 0
BBX 9 9 1 9
BITMAP
7E00
FF00
8180
C080
FF80
0180
0180
7F00
7E00
ENDCHAR
STARTCHAR zeroinferior
ENCODING 8320
SWIDTH 449 0
DWIDTH 11 0
BBX 9 9 1 0
BITMAP
3C00
7F00
C300
C180
8180
C180
C300
7F00
3C00
ENDCHAR
STARTCHAR oneinferior
ENCODING 8321
SWIDTH 222 0
DWIDTH 5 0
BBX 3 9 1 0
BITMAP
C0
E0
20
20
20
20
20
20
20
ENDCHAR
STARTCHAR twoinferior
ENCODING 8322
SWIDTH 442 0
DWIDTH 11 0
BBX 9 9 1 0
BITMAP
FF00
FF00
0180
0100
7F00
C000
C000
FF00
FF00
ENDCHAR
STARTCHAR threeinferior
ENCODING 8323
SWIDTH 443 0
DWIDTH 11 0
BBX 9 9 1 0
BITMAP
FF00
FF00
0180
0100
3E00
0180
0180
FF00
FF00
ENDCHAR
STARTCHAR fourinferior
ENCODING 8324
SWIDTH 452 0
DWIDTH 11 0
BBX 9 9 1 0
BITMAP
8300
8300
8300
8300
C300
FF80
7F80
0300
0300
ENDCHAR
STARTCHAR fiveinferior
ENCODING 8325
SWIDTH 472 0
DWIDTH 11 0
BBX 9 9 1 0
BITMAP
FF80
FF80
C000
C000
FF00
0080
0080
FF80
FF00
ENDCHAR
STARTCHAR sixinferior
ENCODING 8326
SWIDTH 466 0
DWIDTH 11 0
BBX 9 9 1 0
BITMAP
3F80
7F80
C000
C000
FF00
8180
C080
7F80
3F00
ENDCHAR
STARTCHAR seveninferior
ENCODING 8327
SWIDTH 408 0
DWIDTH 10 0
BBX 8 9 1 0
BITMAP
FF
FF
06
04
08
18
30
60
C0
ENDCHAR
STARTCHAR eightinferior
ENCODING 8328
SWIDTH 479 0
DWIDTH 12 0
BBX 10 9 1 0
BITMAP
7F00
FF80
C080
C080
7F00
C080
C0C0
FF80
7F00
ENDCHAR
STARTCHAR nineinferior
ENCODING 8329
SWIDTH 460 0
DWIDTH 11 0
BBX 9 9 1 0
BITMAP
7E00
FF00
8180
C080
FF80
0180
0180
7F00
7E00
ENDCHAR
STARTCHAR Euro
ENCODING 8364
SWIDTH 884 0
DWIDTH 21 0
BBX 19 18 1 0
BITMAP
01FFE0
07FFE0
0FFFC0
1F0000
1E0000
3C0000
380000
FFFE00
780000
780000
FFF800
380000
3C0000
1C0000
1F0000
0FFFC0
07FFC0
01FFC0
ENDCHAR
STARTCHAR uni2117
ENCODING 8471
SWIDTH 829 0
DWIDTH 20 0
BBX 18 18 1 0
BITMAP
03F000
0C0C00
100200
200100
400080
47F880
840840
840440
840840
85F840
840040
840040
400080
400080
200100
100200
0C0C00
03F000
ENDCHAR
STARTCHAR trademark
ENCODING 8482
SWIDTH 536 0
DWIDTH 13 0
BBX 10 6 1 12
BITMAP
F440
2640
26C0
25C0
25C0
2540
ENDCHAR
STARTCHAR onethird
ENCODING 8531
SWIDTH 951 0
DWIDTH 23 0
BBX 21 21 1 -2
BITMAP
0001C0
380180
380300
0C0600
0C0C00
0C0C00
0C1800
0C3000
0C6000
0C6000
00CFF0
018FF8
030018
030010
0603F0
0C0018
180018
180FF8
300FF0
600000
C00000
ENDCHAR
STARTCHAR twothirds
ENCODING 8532
SWIDTH 979 0
DWIDTH 24 0
BBX 22 21 1 -2
BITMAP
000060
FF00C0
FF0180
018180
010300
7F0600
C00C00
800C00
FF1800
FF3000
0067F0
0067F8
00C008
018008
0301F0
030008
06000C
0C07F8
1807F0
180000
700000
ENDCHAR
STARTCHAR oneeighth
ENCODING 8539
SWIDTH 985 0
DWIDTH 24 0
BBX 22 21 1 -2
BITMAP
0001C0
380180
380300
0C0600
0C0C00
0C0C00
0C1800
0C3000
0C6000
0C6000
00C7F8
018FF8
030C0C
030C08
0607F0
0C0C08
180C0C
180FF8
3007F8
600000
C00000
ENDCHAR
STARTCHAR threeeighths
ENCODING 8540
SWIDTH 972 0
DWIDTH 23 0
BBX 21 21 1 -2
BITMAP
000060
FF00C0
FF0180
018300
010300
3F0600
018C00
019800
FF9800
FF3000
0067F0
00CFF8
00CC08
018C18
0307F0
060C08
060808
0C0FF8
1807F0
300000
700000
ENDCHAR
STARTCHAR fiveeighths
ENCODING 8541
SWIDTH 973 0
DWIDTH 23 0
BBX 21 21 1 -2
BITMAP
000060
FF80C0
FF8180
C00180
C00300
FF0600
008C00
008C00
FF9800
FF3000
0067F0
006FF8
00CC08
018C18
0307F0
030C18
060808
0C0FF8
1807F0
180000
700000
ENDCHAR
STARTCHAR seveneighths
ENCODING 8542
SWIDTH 965 0
DWIDTH 23 0
BBX 21 21 1 -2
BITMAP
0001C0
7F8180
7F8300
030600
020C00
060C00
0C1800
183000
306000
606000
00C7F0
018FF8
030C18
030818
0607F0
0C0818
180818
180FF8
3007F0
600000
C00000
ENDCHAR
STARTCHAR minus
ENCODING 8722
SWIDTH 690 0
DWIDTH 17 0
BBX 13 2 2 8
BITMAP
FFF8
FFF8
ENDCHAR
STARTCHAR approxequal
ENCODING 8776
SWIDTH 691 0
DWIDTH 17 0
BBX 13 10 2 4
BITMAP
7808
FF18
87F8
81F0
0000
0000
7808
FF18
87F8
81F0
ENDCHAR
STARTCHAR notequal
ENCODING 8800
SWIDTH 690 0
DWIDTH 17 0
BBX 18 22 -1 -2
BITMAP
0000C0
000180
000180
000300
000600
000C00
1FFF00
1FFF00
003000
006000
006000
00C000
018000
1FFF00
1FFF00
060000
0C0000
180000
180000
300000
600000
C00000
ENDCHAR
STARTCHAR lessequal
ENCODING 8804
SWIDTH 690 0
DWIDTH 17 0
BBX 13 17 2 -1
BITMAP
0008
0078
01F0
07C0
3E00
F800
C000
F000
3E00
0F80
01F0
0078
0018
0000
0000
FFF8
FFF8
ENDCHAR
STARTCHAR greaterequal
ENCODING 8805
SWIDTH 690 0
DWIDTH 17 0
BBX 13 17 2 -1
BITMAP
8000
E000
FC00
1F00
07C0
00F0
0038
00F8
03C0
1F00
7C00
F000
8000
0000
0000
FFF8
FFF8
ENDCHAR
STARTCHAR .notdef
ENCODING -1
SWIDTH 430 0
DWIDTH 10 0
BBX 8 18 1 0
BITMAP
7F
81
81
81
81
81
81
81
81
81
81
81
81
81
81
81
81
7F
ENDCHAR
STARTCHAR nonmarkingreturn
ENCODING -1
SWIDTH 104 0
DWIDTH 3 0
BBX 1 1 0 0
BITMAP
00
ENDCHAR
STARTCHAR .null
ENCODING -1
SWIDTH 104 0
DWIDTH 3 0
BBX 1 1 0 0
BITMAP
00
ENDCHAR
STARTCHAR .ttfautohint
ENCODING -1
SWIDTH 104 0
DWIDTH 3 0
BBX 1 1 0 0
BITMAP
00
ENDCHAR
ENDFONT
